<?xml version="1.0" encoding="UTF-8"?><svg version="1.1" xmlns="http://www.w3.org/2000/svg" xmlns:xlink="http://www.w3.org/1999/xlink" viewBox="0 0 800 600" width="800" height="600" x="0px" y="0px">
    
    
    <!-- ITEM 0 -->
    <g>
        <defs>
            <clipPath id="clip-path-id-viewbox-item-0">
                <rect x="0.0" y="0.0" width="422.0" height="187.16"/>
            </clipPath>
        </defs>
        <g transform="translate(178.0 62.0) rotate(0.0 218.0 96.5) scale(1.033175355450237 1.031203248557384)">
            <g clip-path="url(#clip-path-id-viewbox-item-0)" transform="translate(-0.0 -0.0)">
                
<g>
	<g>
		<rect x="0.5" y="0.5" fill="#FFFFFF" width="130.87" height="186.16"/>
		<path fill="#60657c" d="M131.37,187.16H0.5c-0.276,0-0.5-0.224-0.5-0.5V0.5C0,0.223,0.223,0,0.5,0h130.87    c0.276,0,0.5,0.224,0.5,0.5v186.16C131.87,186.936,131.646,187.16,131.37,187.16z M1,186.16h129.87V1H1V186.16z"/>
	</g>
	<g>
		<g>
			<rect x="145.57" y="0.5" fill="#FFFFFF" width="130.86" height="186.16"/>
			<path fill="#60657c" d="M276.43,187.16H145.57c-0.276,0-0.5-0.224-0.5-0.5V0.5c0-0.276,0.224-0.5,0.5-0.5h130.86     c0.276,0,0.5,0.224,0.5,0.5v186.16C276.93,186.936,276.706,187.16,276.43,187.16z M146.07,186.16h129.86V1H146.07V186.16z"/>
		</g>
	</g>
	<g>
		<g>
			<rect x="290.64" y="0.5" fill="#FFFFFF" width="130.86" height="186.16"/>
			<path fill="#60657c" d="M421.5,187.16H290.64c-0.276,0-0.5-0.224-0.5-0.5V0.5c0-0.276,0.224-0.5,0.5-0.5H421.5     c0.276,0,0.5,0.224,0.5,0.5v186.16C422,186.936,421.776,187.16,421.5,187.16z M291.14,186.16H421V1H291.14V186.16z"/>
		</g>
	</g>
	<g>
		<polygon fill="#FFFFFF" points="0.5,139.21 0.5,155.78 1.96,155.8 1.99,155.8 14.1,155.95 131.37,157.44 131.37,128.75     131.37,103.23 131.37,87.56 131.37,71.8 131.37,57.11 131.37,23.2 57.31,49.2 0.5,37.93 0.5,71.9 0.5,84.96 0.5,112.54     0.5,134.92 0.5,138.78   "/>
		<path fill="#60657c" d="M131.37,157.94c-0.002,0-0.004,0-0.006,0L0.493,156.28C0.22,156.276,0,156.054,0,155.78V37.93    c0-0.149,0.067-0.291,0.183-0.387c0.116-0.095,0.269-0.135,0.415-0.104l56.676,11.243l73.931-25.955    c0.152-0.054,0.322-0.03,0.455,0.063s0.211,0.246,0.211,0.408v134.24c0,0.134-0.054,0.262-0.149,0.355    C131.628,157.888,131.501,157.94,131.37,157.94z M1,155.287l129.87,1.646V23.905L57.475,49.672    c-0.084,0.029-0.174,0.036-0.263,0.019L1,38.54V155.287z"/>
	</g>
	<g>
		<polygon fill="#FFFFFF" points="276.43,39.16 276.43,159.28 145.57,157.62 145.57,18.21 152.67,15.72 188.18,29.92 206.94,17.75     247.01,32.46 262.23,25.87 276.03,38.78   "/>
		<path fill="#60657c" d="M276.43,159.78c-0.002,0-0.004,0-0.006,0l-130.86-1.66c-0.273-0.004-0.494-0.227-0.494-0.5V18.21    c0-0.212,0.134-0.401,0.334-0.472l7.1-2.489c0.115-0.04,0.239-0.038,0.351,0.008l35.27,14.103l18.543-12.029    c0.131-0.086,0.296-0.104,0.444-0.05l39.882,14.642l15.036-6.511c0.182-0.077,0.395-0.042,0.541,0.094l14.203,13.293    c0.1,0.094,0.156,0.226,0.156,0.362v120.12c0,0.134-0.054,0.262-0.149,0.355C276.688,159.728,276.561,159.78,276.43,159.78z     M146.07,157.126l129.86,1.647V39.375l-0.244-0.232l-13.558-12.684l-14.919,6.46c-0.118,0.051-0.25,0.055-0.371,0.011    l-39.835-14.624L188.452,30.34c-0.136,0.087-0.308,0.104-0.458,0.044l-35.336-14.129l-6.588,2.31V157.126z"/>
	</g>
	<g>
		<polygon fill="#FFFFFF" points="421.5,58.59 421.5,161.12 397.91,160.82 396.85,160.81 388.3,160.7 362.65,160.37 290.64,159.46     290.64,52.47 294.19,55.79 298.69,48.45 303.82,40.07 352.52,53.76   "/>
		<path fill="#60657c" d="M421.5,161.62c-0.002,0-0.004,0-0.006,0l-130.86-1.66c-0.273-0.004-0.494-0.227-0.494-0.5V52.471    c0-0.199,0.118-0.379,0.301-0.459c0.183-0.078,0.396-0.042,0.541,0.094l3.103,2.901l9.31-15.197    c0.116-0.191,0.346-0.282,0.562-0.221l48.65,13.676l68.929,4.826c0.262,0.019,0.465,0.236,0.465,0.499v102.53    c0,0.134-0.054,0.262-0.149,0.355C421.758,161.568,421.631,161.62,421.5,161.62z M291.14,158.966L421,160.613V59.055    l-68.515-4.797c-0.034-0.003-0.067-0.009-0.1-0.018l-48.335-13.587l-9.433,15.397c-0.079,0.128-0.21,0.214-0.359,0.233    c-0.143,0.021-0.298-0.027-0.408-0.13l-2.709-2.532V158.966z"/>
	</g>
	<g>
		<path fill="#FFFFFF" d="M382.46,90.86h-0.01l-55.8-20.36l-9.96,7.11l-7.79,5.57l-18.26-6.6v100.2l16.6-0.04h0.11l88.28-0.23    l1.1-14.24l0.08-0.94l0.04-0.52l2.11-27.25l1.61-20.88l1.15-14.79L382.46,90.86z M265.57,68.76h-0.01l-23.11-6.88l-8.62-4.06    c0,0-8.12,1.52-9.64,2.03c-1.52,0.51-9.64-10.14-9.64-10.14l-18.77,13.18l-28.24-6.59l-17.41-4.06l-4.56,1.18v123.74l34.58-0.09    l2.37-0.01h0.22l66.14-0.17l25.62-0.06l0.04-0.01h1.89V71.99L265.57,68.76z M100.45,65.13L42.6,80.14l-28.99-5.67L0.5,71.9v63.02    l0.27,3.85l0.06,0.84l0.01,0.01v0.01l1.13,15.9v0.01l0.02,0.26l0.43,6.01l0.76,10.66l0.36,5.06l127.83-0.33V57.11L100.45,65.13z"/>
		<path fill="#60657c" d="M3.54,178.03c-0.262,0-0.48-0.203-0.499-0.465l-2.695-37.833c-0.008-0.028-0.013-0.058-0.015-0.086    l-0.331-4.691L0,71.9c0-0.149,0.067-0.291,0.182-0.386c0.116-0.095,0.27-0.135,0.414-0.104l41.988,8.218l88.66-23.002    c0.149-0.04,0.309-0.006,0.432,0.089c0.122,0.095,0.194,0.241,0.194,0.396V177.2c0,0.275-0.223,0.499-0.499,0.5l-127.83,0.33    C3.541,178.03,3.54,178.03,3.54,178.03z M1.323,139.497c0.011,0.04,0.017,0.082,0.017,0.123l2.666,37.409l126.864-0.328V57.757    L42.725,80.625c-0.072,0.018-0.149,0.022-0.221,0.006L1,72.508v62.412L1.323,139.497z M145.57,177.66    c-0.132,0-0.259-0.053-0.353-0.146c-0.094-0.095-0.147-0.222-0.147-0.354V53.42c0-0.228,0.154-0.427,0.375-0.484l4.56-1.18    c0.08-0.02,0.161-0.021,0.239-0.003l45.432,10.6l18.587-13.052c0.22-0.155,0.521-0.106,0.685,0.106    c3.633,4.765,8.155,9.928,9.125,9.961c1.493-0.508,9.332-1.977,9.665-2.039c0.102-0.019,0.209-0.005,0.305,0.039l8.62,4.06    l23.001,6.842c0.017,0.003,0.033,0.007,0.048,0.011l10.86,3.23c0.212,0.063,0.357,0.258,0.357,0.479v104.83    c0,0.276-0.224,0.5-0.5,0.5h-1.842c-0.032,0.006-0.065,0.01-0.087,0.01l-128.929,0.33    C145.571,177.66,145.571,177.66,145.57,177.66z M146.07,53.806v122.853l128.381-0.329c0.033-0.006,0.066-0.01,0.088-0.01h1.39    V72.363l-10.465-3.113c-0.017-0.003-0.033-0.007-0.048-0.011l-23.11-6.88l-8.544-4.018c-1.14,0.215-8.06,1.527-9.414,1.982    c-0.086,0.029-0.179,0.044-0.276,0.044c-1.791,0.001-7.491-7.19-9.629-9.974L196.067,63.3c-0.116,0.082-0.261,0.111-0.401,0.078    l-45.53-10.623L146.07,53.806z M290.64,177.28c-0.132,0-0.259-0.053-0.353-0.146c-0.094-0.094-0.147-0.221-0.147-0.354V76.58    c0-0.163,0.08-0.315,0.213-0.409c0.132-0.093,0.304-0.115,0.457-0.062l18.013,6.511l17.537-12.527    c0.135-0.096,0.308-0.119,0.462-0.063l55.758,20.346c0.018,0.004,0.035,0.009,0.051,0.015l19.26,7.03    c0.211,0.077,0.345,0.285,0.327,0.509l-6.09,78.618c-0.02,0.261-0.236,0.461-0.497,0.462L290.64,177.28    C290.641,177.28,290.64,177.28,290.64,177.28z M291.14,77.292v98.987l104.027-0.269l6.025-77.78l-18.863-6.886    c-0.018-0.004-0.035-0.009-0.051-0.015l-55.552-20.271l-17.535,12.526c-0.134,0.096-0.305,0.12-0.461,0.064L291.14,77.292z"/>
	</g>
	<g>
		<polygon fill="#FFFFFF" points="131.37,87.56 131.37,161.96 56.35,161.87 51.22,161.87 18.88,161.83 2.42,161.81 1.8,161.81     0.5,161.8 0.5,84.96 3.82,86.2 14.7,90.28 40.57,86.23 83.18,94.34 117.67,85.72   "/>
		<path fill="#60657c" d="M131.37,162.46L131.37,162.46L0.496,162.3C0.221,162.298,0,162.074,0,161.8V84.96    c0-0.164,0.08-0.317,0.215-0.411s0.307-0.112,0.46-0.058l14.078,5.274l25.74-4.029c0.056-0.01,0.114-0.008,0.17,0.003    l42.502,8.089l34.383-8.593c0.061-0.015,0.125-0.019,0.188-0.01l13.7,1.84c0.249,0.033,0.434,0.245,0.434,0.495v74.399    c0,0.133-0.053,0.26-0.146,0.354S131.502,162.46,131.37,162.46z M2.42,161.31l128.45,0.148V87.998l-13.172-1.77l-34.397,8.597    c-0.07,0.018-0.144,0.02-0.214,0.006l-42.525-8.093l-25.785,4.036c-0.083,0.014-0.172,0.005-0.253-0.026L1,85.68v75.623    L2.42,161.31z"/>
	</g>
	<g>
		<polygon fill="#FFFFFF" points="276.43,65.83 276.43,162.13 145.57,161.98 145.57,89.46 174.48,93.33 265.56,68.76 265.57,68.76       "/>
		<path fill="#60657c" d="M276.43,162.63L276.43,162.63l-130.86-0.149c-0.276,0-0.5-0.224-0.5-0.5V89.46    c0-0.145,0.062-0.281,0.171-0.376c0.108-0.095,0.253-0.144,0.396-0.119l28.81,3.856l90.983-24.544    c0.017-0.005,0.034-0.009,0.051-0.011l10.819-2.919c0.15-0.041,0.311-0.01,0.435,0.086c0.124,0.094,0.196,0.241,0.196,0.396v96.3    c0,0.133-0.053,0.26-0.146,0.354S276.562,162.63,276.43,162.63z M146.07,161.481l129.86,0.147V66.482l-10.229,2.76    c-0.017,0.005-0.034,0.009-0.051,0.011l-91.04,24.56c-0.063,0.018-0.131,0.023-0.197,0.013l-28.343-3.794V161.481z"/>
	</g>
	<g>
		<polygon fill="#FFFFFF" points="421.5,92.52 421.5,162.3 396.73,162.27 392.22,162.27 360.39,162.23 290.64,162.15 290.64,66.85     316.69,77.61 344.91,89.27 382.45,90.86 382.46,90.86   "/>
		<path fill="#60657c" d="M421.5,162.8L421.5,162.8l-130.86-0.149c-0.276,0-0.5-0.224-0.5-0.5v-95.3    c0-0.167,0.083-0.323,0.222-0.416c0.138-0.093,0.313-0.111,0.469-0.046l54.188,22.386l76.501,3.246    c0.268,0.012,0.479,0.232,0.479,0.5V162.3c0,0.133-0.053,0.26-0.146,0.354S421.632,162.8,421.5,162.8z M291.14,161.651    L421,161.799V93l-76.111-3.229c-0.059-0.003-0.116-0.016-0.17-0.038L291.14,67.597V161.651z"/>
	</g>
	<g>
		<path fill="#FFFFFF" d="M97.89,136.95l-95.47,1.79l-1.65,0.03l-0.27,0.01v47.88h130.87v-57.91    C113.11,133.22,97.89,136.95,97.89,136.95z M398.96,133.56l-71.3-2.7l-37.02-10.28v66.08H421.5v-52.24L398.96,133.56z     M245.49,108.04l-31.45,13.18c0,0-19.78-8.11-21.3-7.6c-0.75,0.25-23.92,5.94-47.17,11.65v61.39h130.86v-70.03L245.49,108.04z"/>
		<path fill="#60657c" d="M421.5,187.16H290.64c-0.276,0-0.5-0.224-0.5-0.5v-66.08c0-0.156,0.073-0.304,0.197-0.398    c0.125-0.095,0.286-0.127,0.437-0.083l36.964,10.265l93.781,3.557c0.269,0.011,0.481,0.231,0.481,0.5v52.24    C422,186.936,421.776,187.16,421.5,187.16z M291.14,186.16H421v-51.259l-93.359-3.541c-0.039-0.002-0.077-0.008-0.115-0.019    l-36.386-10.104V186.16z M276.43,187.16H145.57c-0.276,0-0.5-0.224-0.5-0.5v-61.39c0-0.23,0.157-0.431,0.381-0.485    c22.807-5.602,46.391-11.394,47.131-11.64c0.098-0.032,0.211-0.049,0.347-0.049c2.475,0,18.47,6.503,21.109,7.583l31.259-13.101    c0.103-0.045,0.218-0.052,0.327-0.021l30.94,8.59c0.216,0.06,0.366,0.257,0.366,0.481v70.03    C276.93,186.936,276.706,187.16,276.43,187.16z M146.07,186.16h129.86v-69.15l-30.407-8.441l-31.29,13.113    c-0.123,0.053-0.26,0.051-0.383,0.002c-5.146-2.11-18.936-7.587-20.922-7.587c-0.797,0.254-23.119,5.735-46.858,11.565V186.16z     M131.37,187.16H0.5c-0.276,0-0.5-0.224-0.5-0.5v-47.88c0-0.27,0.213-0.49,0.482-0.5l1.929-0.04l95.415-1.789l33.426-8.187    c0.15-0.038,0.307-0.002,0.428,0.092c0.121,0.095,0.191,0.24,0.191,0.394v57.91C131.87,186.936,131.646,187.16,131.37,187.16z     M1,186.16h129.87v-56.773l-32.861,8.049c-0.036,0.009-0.073,0.014-0.11,0.015L1,139.266V186.16z"/>
	</g>
</g>

            </g>
        </g>
    </g>
    
    <!-- ITEM 1 -->
    <g>
        <defs>
            <clipPath id="clip-path-id-viewbox-item-1">
                <rect x="0.0" y="0.0" width="79.551" height="175.153"/>
            </clipPath>
        </defs>
        <g transform="translate(381.0 337.0) rotate(0.0 -40.0 89.0) scale(-1.0056441779487373 1.0162543604734147)">
            <g clip-path="url(#clip-path-id-viewbox-item-1)" transform="translate(-0.0 -0.0)">
                
<g>
	<g>
		<g>
			
				<rect x="8.133" y="15.627" transform="matrix(0.9948 0.1021 -0.1021 0.9948 9.7998 -0.4332)" fill="#BBBDC7" width="2" height="159.84"/>
		</g>
	</g>
	<g>
		<g>
			<rect x="9.759" y="91.417" fill="#BBBDC7" width="59.35" height="2"/>
		</g>
	</g>
	<g>
		<g>
			
				<rect x="-10.689" y="94.547" transform="matrix(0.1018 0.9948 -0.9948 0.1018 157.231 16.9468)" fill="#BBBDC7" width="159.84" height="2"/>
		</g>
	</g>
	<g>
		<g>
			<g>
				<path fill="#BBBDC7" d="M24.188,18.81h43.728c4.583,0,8.298-3.715,8.298-8.298V0.267H40.916c-1.657,0-3,1.343-3,3v2.336      c0,5.097-3.242,9.629-8.066,11.275L24.188,18.81z"/>
			</g>
		</g>
		<g>
			<g>
				<path fill="#BBBDC7" d="M4.277,26.751l15.055-0.095l9-12.659l-17.573,0c-4.473,0.578-7.348,4.338-9.256,8.566      C0.612,24.536,2.112,26.765,4.277,26.751z"/>
			</g>
		</g>
		<g>
			<g>
				<path fill="#D2D3DA" d="M18.848,27.065c-0.612,0-1.229-0.187-1.763-0.574c-1.339-0.975-1.636-2.851-0.661-4.191l2.566-3.527      c2.145-2.948,5.602-4.708,9.248-4.708h4.571c3.592,0,7.211,0.295,10.757,0.876l16.547,2.712c3.266,0.535,6.604-0.363,9.16-2.464      c2.556-2.101,4.083-5.203,4.189-8.51l0.089-3.75c0.039-1.657,1.418-2.98,3.07-2.928c1.656,0.039,2.967,1.414,2.928,3.07      l-0.09,3.776c-0.163,5.059-2.487,9.779-6.377,12.977c-3.891,3.198-8.974,4.562-13.94,3.75l-16.547-2.712      c-3.226-0.529-6.518-0.797-9.786-0.797h-4.571c-1.733,0-3.377,0.836-4.396,2.238l-2.566,3.527      C20.689,26.637,19.774,27.065,18.848,27.065z"/>
			</g>
		</g>
	</g>
</g>

            </g>
        </g>
    </g>
    
    <!-- ITEM 2 -->
    <g>
        <defs>
            <clipPath id="clip-path-id-viewbox-item-2">
                <rect x="0.0" y="0.0" width="111.145" height="278.551"/>
            </clipPath>
        </defs>
        <g transform="translate(291.0 196.0) rotate(0.0 55.5 139.0) scale(0.9986953979036394 0.998021906221841)">
            <g clip-path="url(#clip-path-id-viewbox-item-2)" transform="translate(-0.0 -0.0)">
                
<g>
	<path fill="#99644C" d="M106.084,149.696l-3.166,25.925c-0.139,1.139-0.382,2.262-0.727,3.357l-21.633,68.668   c0,0-16.184-2.021-15.63-1.922l9.068-73.533c0.263-2.132,0.891-4.203,1.856-6.123l13.367-26.575l5.308-0.878   C101.11,137.53,106.893,143.072,106.084,149.696z"/>
</g>
<path fill="#013B84" d="M107.098,161.372l-48.5-5l-3.75-30l19.75,0.5l27.334,13.561c3.019,1.498,4.948,4.556,4.999,7.926  L107.098,161.372z"/>
<g opacity="0.07">
	<path fill="#002652" d="M106.084,149.696l-3.166,25.925c-0.139,1.139-0.382,2.262-0.727,3.357l-21.633,68.668   c0,0-16.184-2.021-15.63-1.922l9.068-73.533c0.263-2.132,0.891-4.203,1.856-6.123l13.367-26.575l5.308-0.878   C101.11,137.53,106.893,143.072,106.084,149.696z"/>
</g>
<g>
	<path fill="#BEDBFF" d="M82.831,241.259l-6.47-0.79l2.246-7.35c0.606-1.981,2.546-3.242,4.602-2.991l2.914,0.356L82.831,241.259z"/>
	
		<rect x="65.583" y="237.767" transform="matrix(-0.9926 -0.1212 0.1212 -0.9926 117.0559 488.3266)" fill="#99644C" width="15.595" height="5.671"/>
	<path fill="#7EB8FF" d="M82.404,254.307l-21.597-2.637l0.246-2.178c0.336-2.976,1.205-5.868,2.567-8.536l2.647-5.187l17.317,8.874   L82.404,254.307z"/>
	<path fill="#7EB8FF" d="M66.03,234.265l-1.013,8.299c0.493,0.06,12.564,8.711,12.87,9.102l1.806,2.309l23.466,3.11l-0.533-2.46   c-0.269-1.245-1.153-2.267-2.345-2.714l-10.946-4.854c-2.454-0.92-4.507-2.671-5.805-4.948l-2.564-4.499   c-0.587-1.029-1.624-1.721-2.801-1.864L66.03,234.265L66.03,234.265z"/>
	
		<rect x="60.635" y="253.938" transform="matrix(-0.9926 -0.1212 0.1212 -0.9926 132.7556 519.2953)" fill="#BEDBFF" width="43.075" height="3.344"/>
	<circle fill="#BEDBFF" cx="70.088" cy="245.488" r="3.995"/>
</g>
<path fill="#BEDBFF" d="M90.463,274.772c1.375,2.352,3.899,3.792,6.623,3.779l9.789-0.049c3.157-0.123,5.178-3.41,3.862-6.282  l-11.42-24.916l-15.665,4.527l0.463,12.074L90.463,274.772z"/>
<g>
	<path fill="#99644C" d="M57.471,136.759c4.427-2.699,10.213-1.122,12.658,3.451l13.251,24.784c0.944,1.766,1.605,3.67,1.956,5.643   l12.573,70.511c0,0-16.06,4.132-15.523,3.933l-26.114-68.502c-0.424-1.11-0.741-2.257-0.952-3.426l-5.67-31.627L57.471,136.759z"/>
</g>
<path fill="#93C3FF" d="M90.283,271.704c1.375,2.352,3.899,3.792,6.623,3.779l9.789-0.049c3.157-0.123,5.178-3.41,3.862-6.282  l-11.42-24.916l-15.665,4.527l0.463,12.074L90.283,271.704z"/>
<path fill="#BEDBFF" d="M97.824,248.377l-11.081,3.044L83.7,240.343c-0.551-2.004,0.628-4.074,2.632-4.625l3.826-1.051  c2.004-0.551,4.074,0.628,4.625,2.632L97.824,248.377z"/>
<path fill="#93C3FF" d="M94.067,253.32l7.159-2.083l-3.369-11.578l-2.642,0.769c-1.873,0.545-3.032,2.416-2.688,4.336L94.067,253.32  z"/>
<path fill="#93C3FF" d="M85.1,255.929l9.624-2.801l-3.652-8.084c-0.781-1.73-2.717-2.621-4.54-2.092l-4.801,1.398L85.1,255.929z"/>
<g>
	<polygon fill="#013B84" points="48.656,141.461 54.956,171.115 82.8,163.91 65.627,131.788  "/>
</g>
<path fill="#013B84" d="M20.563,115.691l43.871-4l15.302,48.046H38.611c-9.023,0-16.693-6.592-18.048-15.513L20.563,115.691z"/>
<path fill="#1D2445" d="M32.333,38.276h32.535V14.162C64.868,6.341,58.527,0,50.706,0h-4.21c-7.822,0-14.162,6.341-14.162,14.162  V38.276z"/>
<polygon fill="#2888FF" points="75.438,127.202 26.115,127.202 17.717,75.348 76.891,75.348 80.588,86.155 76.186,100.5 "/>
<polygon fill="#2888FF" points="81.153,56.554 106.96,106.847 95.794,111.995 93.649,112.091 64.064,59.962 "/>
<rect x="20.563" y="69.497" fill="#2888FF" width="12.022" height="57.705"/>
<path fill="#2888FF" d="M91.536,79.895L10.766,91.276v-23.58c0-9.535,7.729-17.264,17.264-17.264h41.201  c6.049,0,11.506,3.633,13.839,9.214L91.536,79.895z"/>
<path fill="#2888FF" d="M11.434,62.914L0.946,104.142l-0.889,5.244l15.141-4.72l13.47-44.722l-13.933,0.339  C13.17,60.321,11.82,61.396,11.434,62.914z"/>
<g>
	<g>
		<path fill="#99644C" d="M56.687,109.031l1.47,7.846l39.885,1.569c4.87,0.192,9.123-3.263,9.934-8.069l0.093-0.548    c0.522-3.096-1.833-5.93-4.972-5.982l-9.133-0.152c-2.03-0.035-4.059,0.099-6.068,0.398L56.687,109.031z"/>
		<path fill="#99644C" d="M52.908,116.68c0.406,0.161,0.84,0.244,1.278,0.244h16.818l0.268-0.157v-7.431h-7.253    c-0.254,0.059-0.514,0.099-0.78,0.099l-2.158-0.005l-7.9-0.794c-0.915-0.097-1.835,0.152-2.577,0.695l-2.138,1.555l-4.215-0.495    c-0.963-0.121-1.942-0.028-2.86,0.277l-8.55,2.795c-0.259,0.083-0.401,0.36-0.318,0.619c0.003,0.003,0.003,0.007,0.003,0.007    l0.01,0.028c0.342,0.849,1.23,1.344,2.131,1.188l8.125-1.42l8.002,1.956L52.908,116.68z"/>
	</g>
	<g opacity="0.1" enable-background="new    ">
		<path fill="#1D2445" d="M56.687,109.031l1.47,7.846l39.885,1.569c4.87,0.192,9.123-3.263,9.934-8.069l0.093-0.548    c0.522-3.096-1.833-5.93-4.972-5.982l-9.133-0.152c-2.03-0.035-4.059,0.099-6.068,0.398L56.687,109.031z"/>
		<path fill="#1D2445" d="M52.908,116.68c0.406,0.161,0.84,0.244,1.278,0.244h16.818l0.268-0.157v-7.431h-7.253    c-0.254,0.059-0.514,0.099-0.78,0.099l-2.158-0.005l-7.9-0.794c-0.915-0.097-1.835,0.152-2.577,0.695l-2.138,1.555l-4.215-0.495    c-0.963-0.121-1.942-0.028-2.86,0.277l-8.55,2.795c-0.259,0.083-0.401,0.36-0.318,0.619c0.003,0.003,0.003,0.007,0.003,0.007    l0.01,0.028c0.342,0.849,1.23,1.344,2.131,1.188l8.125-1.42l8.002,1.956L52.908,116.68z"/>
	</g>
</g>
<g>
	<path fill="#99644C" d="M51.455,110.031l-1.47,7.846L10.1,119.445c-4.87,0.192-9.123-3.263-9.934-8.069l-0.093-0.548   c-0.522-3.096,1.833-5.93,4.972-5.982l9.133-0.152c2.03-0.035,4.059,0.099,6.068,0.398L51.455,110.031z"/>
	<path fill="#99644C" d="M55.233,117.68c-0.406,0.161-0.84,0.244-1.278,0.244H37.137l-0.268-0.157v-7.431h7.253   c0.254,0.059,0.514,0.099,0.78,0.099l2.158-0.005l7.9-0.794c0.915-0.097,1.835,0.152,2.577,0.695l2.138,1.555l4.215-0.495   c0.963-0.121,1.942-0.028,2.86,0.277l8.55,2.795c0.259,0.083,0.401,0.36,0.318,0.619c-0.003,0.003-0.003,0.007-0.003,0.007   l-0.01,0.028c-0.342,0.849-1.23,1.344-2.131,1.188l-8.125-1.42l-8.002,1.956L55.233,117.68z"/>
</g>
<circle fill="#1D2445" cx="46.429" cy="37.011" r="14.276"/>
<circle fill="#1D2445" cx="50.615" cy="37.011" r="14.276"/>
<path fill="#99644C" d="M46.738,68.374l-7.601-19.19v-14.51h9.519h8.35v17.879L48.78,68.476  C48.337,69.333,47.093,69.27,46.738,68.374z"/>
<polygon opacity="0.1" fill="#1D2445" points="48.826,42.072 48.826,50.308 52.57,42.446 "/>
<path fill="#99644C" d="M61.174,13.58c0-3.906-3.166-7.072-7.072-7.072h-6.03h-1.872c-6.203,0-11.231,5.028-11.231,11.231v6.738  v6.002c0,1.915,0.734,3.758,2.051,5.148l6.457,6.819h9.189l6.457-6.819c1.317-1.391,2.051-3.233,2.051-5.148v-6.002V13.58z"/>
<rect x="42.213" y="13.964" fill="#99644C" width="9.888" height="12.57"/>
<path fill="#99644C" d="M35.421,30.092h7.394c0.493,0,0.893-0.4,0.893-0.893v-7.342c0-0.493-0.4-0.893-0.893-0.893h-7.394  c-2.521,0-4.564,2.043-4.564,4.564v0C30.857,28.049,32.9,30.092,35.421,30.092z"/>
<path fill="#1D2445" d="M52.694,3.931h-8.766l1.958,7.378c1.164,4.386,5.133,7.439,9.671,7.439h6.341v-5.615  C61.896,8.051,57.776,3.931,52.694,3.931z"/>
<polygon fill="#93C3FF" points="37.869,21.298 33.384,21.298 33.283,18.799 37.869,18.799 "/>
<polygon opacity="0.1" fill="#1D2445" points="53.318,29.949 49.575,29.949 49.575,20.215 "/>
<g>
	<g>
		<path fill="#93C3FF" d="M45.339,19.799c0.198,0,0.36,0.161,0.36,0.36v4.272c0,0.198-0.161,0.36-0.36,0.36h-6.745    c-0.198,0-0.36-0.161-0.36-0.36v-4.632H45.339 M45.339,18.799h-8.105v5.632c0,0.751,0.609,1.36,1.36,1.36h6.745    c0.751,0,1.36-0.609,1.36-1.36v-4.272C46.698,19.408,46.09,18.799,45.339,18.799L45.339,18.799z"/>
	</g>
	<g>
		<path fill="#93C3FF" d="M57.908,19.799v4.632c0,0.198-0.161,0.36-0.36,0.36h-6.745c-0.198,0-0.36-0.161-0.36-0.36v-4.272    c0-0.198,0.161-0.36,0.36-0.36H57.908 M58.908,18.799h-8.105c-0.751,0-1.36,0.609-1.36,1.36v4.272c0,0.751,0.609,1.36,1.36,1.36    h6.745c0.751,0,1.36-0.609,1.36-1.36V18.799L58.908,18.799z"/>
	</g>
</g>
<g>
	<polygon opacity="0.1" fill="#1D2445" points="52.57,32.356 51.848,34.122 48.483,34.782 48.483,32.316  "/>
	<polygon opacity="0.1" fill="#1D2445" points="44.397,32.356 45.119,34.122 48.483,34.782 48.483,32.316  "/>
</g>
<path fill="#1D2445" d="M54.349,18.718L54.349,18.718c1.067,0,1.932,0.865,1.932,1.932v6.647c0,2.837,1.361,5.5,3.659,7.162  c2.14,1.546,4.447,3.223,4.576,3.352v-9.733h-1.369V13.851h-8.799V18.718z"/>
<polygon fill="#93C3FF" points="50.324,21.298 45.838,21.298 45.737,18.799 50.324,18.799 "/>

            </g>
        </g>
    </g>
    
    <!-- ITEM 3 -->
    <g>
        <defs>
            <clipPath id="clip-path-id-crop-item-3">
                
          <g transform="scale(0.8853375796178344 0.8881165048543689)">
          <rect x="0.0" y="6.0" width="471.0" height="185.0"/>
          </g>
        
            </clipPath>
            
            <clipPath id="clip-path-id-viewbox-item-3">
                <rect x="0.0" y="0.0" width="416.994" height="182.952"/>
            </clipPath>
        </defs>
        <g clip-path="url(#clip-path-id-crop-item-3)" transform="translate(149.0 328.0) rotate(0.0 235.5 103.0) scale(1.1295126548583432 1.1259783987056715)">
            <g clip-path="url(#clip-path-id-viewbox-item-3)" transform="translate(-0.0 -0.0)">
                
<g>
	<g>
		<rect x="0.158" y="0" fill="#F3F4F6" width="416.837" height="17.368"/>
	</g>
	<g>
		<rect x="357.134" y="12.406" fill="#F3F4F6" width="22.331" height="19.849"/>
	</g>
	<g>
		<polygon fill="#F3F4F6" points="408.128,182.952 368.299,34.499 328.47,182.952 320.744,180.879 368.299,3.626 415.854,180.879       "/>
	</g>
	<g>
		<rect x="36.39" y="12.406" fill="#F3F4F6" width="22.331" height="19.849"/>
	</g>
	<g>
		<polygon fill="#F3F4F6" points="87.384,182.952 47.556,34.499 7.727,182.952 0,180.879 47.556,3.626 95.111,180.879   "/>
	</g>
</g>

            </g>
        </g>
    </g>
    
    <!-- ITEM 4 -->
    <g>
        <defs>
            <clipPath id="clip-path-id-viewbox-item-4">
                <rect x="0.0" y="0.0" width="79.551" height="175.153"/>
            </clipPath>
        </defs>
        <g transform="translate(672.0 343.0) rotate(0.0 40.0 89.0) scale(1.0056441779487373 1.0162543604734147)">
            <g clip-path="url(#clip-path-id-viewbox-item-4)" transform="translate(-0.0 -0.0)">
                
<g>
	<g>
		<g>
			
				<rect x="8.133" y="15.627" transform="matrix(0.9948 0.1021 -0.1021 0.9948 9.7998 -0.4332)" fill="#BBBDC7" width="2" height="159.84"/>
		</g>
	</g>
	<g>
		<g>
			<rect x="9.759" y="91.417" fill="#BBBDC7" width="59.35" height="2"/>
		</g>
	</g>
	<g>
		<g>
			
				<rect x="-10.689" y="94.547" transform="matrix(0.1018 0.9948 -0.9948 0.1018 157.231 16.9468)" fill="#BBBDC7" width="159.84" height="2"/>
		</g>
	</g>
	<g>
		<g>
			<g>
				<path fill="#BBBDC7" d="M24.188,18.81h43.728c4.583,0,8.298-3.715,8.298-8.298V0.267H40.916c-1.657,0-3,1.343-3,3v2.336      c0,5.097-3.242,9.629-8.066,11.275L24.188,18.81z"/>
			</g>
		</g>
		<g>
			<g>
				<path fill="#BBBDC7" d="M4.277,26.751l15.055-0.095l9-12.659l-17.573,0c-4.473,0.578-7.348,4.338-9.256,8.566      C0.612,24.536,2.112,26.765,4.277,26.751z"/>
			</g>
		</g>
		<g>
			<g>
				<path fill="#D2D3DA" d="M18.848,27.065c-0.612,0-1.229-0.187-1.763-0.574c-1.339-0.975-1.636-2.851-0.661-4.191l2.566-3.527      c2.145-2.948,5.602-4.708,9.248-4.708h4.571c3.592,0,7.211,0.295,10.757,0.876l16.547,2.712c3.266,0.535,6.604-0.363,9.16-2.464      c2.556-2.101,4.083-5.203,4.189-8.51l0.089-3.75c0.039-1.657,1.418-2.98,3.07-2.928c1.656,0.039,2.967,1.414,2.928,3.07      l-0.09,3.776c-0.163,5.059-2.487,9.779-6.377,12.977c-3.891,3.198-8.974,4.562-13.94,3.75l-16.547-2.712      c-3.226-0.529-6.518-0.797-9.786-0.797h-4.571c-1.733,0-3.377,0.836-4.396,2.238l-2.566,3.527      C20.689,26.637,19.774,27.065,18.848,27.065z"/>
			</g>
		</g>
	</g>
</g>

            </g>
        </g>
    </g>
    
    <!-- ITEM 5 -->
    <g>
        <defs>
            <clipPath id="clip-path-id-viewbox-item-5">
                <rect x="0.0" y="0.0" width="79.551" height="175.153"/>
            </clipPath>
        </defs>
        <g transform="translate(114.0 339.0) rotate(0.0 -40.0 89.5) scale(-1.0056441779487373 1.0219636546333777)">
            <g clip-path="url(#clip-path-id-viewbox-item-5)" transform="translate(-0.0 -0.0)">
                
<g>
	<g>
		<g>
			
				<rect x="8.133" y="15.627" transform="matrix(0.9948 0.1021 -0.1021 0.9948 9.7998 -0.4332)" fill="#BBBDC7" width="2" height="159.84"/>
		</g>
	</g>
	<g>
		<g>
			<rect x="9.759" y="91.417" fill="#BBBDC7" width="59.35" height="2"/>
		</g>
	</g>
	<g>
		<g>
			
				<rect x="-10.689" y="94.547" transform="matrix(0.1018 0.9948 -0.9948 0.1018 157.231 16.9468)" fill="#BBBDC7" width="159.84" height="2"/>
		</g>
	</g>
	<g>
		<g>
			<g>
				<path fill="#BBBDC7" d="M24.188,18.81h43.728c4.583,0,8.298-3.715,8.298-8.298V0.267H40.916c-1.657,0-3,1.343-3,3v2.336      c0,5.097-3.242,9.629-8.066,11.275L24.188,18.81z"/>
			</g>
		</g>
		<g>
			<g>
				<path fill="#BBBDC7" d="M4.277,26.751l15.055-0.095l9-12.659l-17.573,0c-4.473,0.578-7.348,4.338-9.256,8.566      C0.612,24.536,2.112,26.765,4.277,26.751z"/>
			</g>
		</g>
		<g>
			<g>
				<path fill="#D2D3DA" d="M18.848,27.065c-0.612,0-1.229-0.187-1.763-0.574c-1.339-0.975-1.636-2.851-0.661-4.191l2.566-3.527      c2.145-2.948,5.602-4.708,9.248-4.708h4.571c3.592,0,7.211,0.295,10.757,0.876l16.547,2.712c3.266,0.535,6.604-0.363,9.16-2.464      c2.556-2.101,4.083-5.203,4.189-8.51l0.089-3.75c0.039-1.657,1.418-2.98,3.07-2.928c1.656,0.039,2.967,1.414,2.928,3.07      l-0.09,3.776c-0.163,5.059-2.487,9.779-6.377,12.977c-3.891,3.198-8.974,4.562-13.94,3.75l-16.547-2.712      c-3.226-0.529-6.518-0.797-9.786-0.797h-4.571c-1.733,0-3.377,0.836-4.396,2.238l-2.566,3.527      C20.689,26.637,19.774,27.065,18.848,27.065z"/>
			</g>
		</g>
	</g>
</g>

            </g>
        </g>
    </g>
    
    <!-- ITEM 6 -->
    <g>
        <defs>
            <clipPath id="clip-path-id-viewbox-item-6">
                <rect x="0.0" y="0.0" width="204.03" height="306.627"/>
            </clipPath>
        </defs>
        <g transform="translate(533.0 204.0) rotate(0.0 102.0 153.0) scale(0.9998529627995882 0.9979551702883307)">
            <g clip-path="url(#clip-path-id-viewbox-item-6)" transform="translate(-0.0 -0.0)">
                
<g>
	<path fill="#2888FF" d="M130.099,166.703l34.008,41.361l-13.705,1.304l1.467,15.418l-55.866-45.4   c-0.94-0.764-0.642-2.268,0.518-2.615L130.099,166.703z"/>
	<polygon fill="#A9CFFF" points="164.108,208.064 150.401,209.368 151.869,224.786 127.74,205.177 154.556,196.448  "/>
	<path fill="#013B84" d="M132.471,239.817l-4.407-1.18c-1.215-0.325-2.183-1.244-2.573-2.44v0c-0.573-1.759,0.235-3.671,1.896-4.486   l7.324-3.598c4.629-2.274,8.041-6.446,9.352-11.433l1.569-5.971l3.646,0.868c0.879,0.209,1.461,1.045,1.352,1.941l-0.31,2.568   l4.857,0.385c3.29,0.261,6.44-1.378,8.115-4.221l2.586-4.39c0.453-0.769,1.594-0.674,1.914,0.159l5.448,14.189l0.237,3.68   L132.471,239.817z"/>
	<path fill="#2888FF" d="M174.661,222.796l-0.208,1.647c-0.374,2.964-2.426,5.445-5.267,6.37l-30.202,9.831   c-0.581,0.189-1.2,0.225-1.799,0.105l-7.911-1.586l24.868-8.095c0.44-0.143,0.807-0.453,1.023-0.863l0,0   c1.082-2.059,2.926-3.614,5.138-4.334l12.97-4.222C174.016,221.406,174.759,222.02,174.661,222.796z"/>
	<path fill="#2888FF" d="M96.871,156.361l74.423-36.872l12.236,37.591l-75.476,24.569c-6.708,2.183-13.915-1.484-16.099-8.192   l-0.992-3.047C89.174,164.91,91.689,158.929,96.871,156.361z"/>
	<path fill="#2888FF" d="M196.113,113.339l6.751,16.106c1.891,4.511,1.463,9.661-1.146,13.799l-33.637,53.346l-5.631,31.301   c-0.879,4.887-3.115,9.428-6.452,13.105l-21.887,38.01l-18.988-8.297l25.815-68.191l-2.891-15.744l39.751-80.804l4.481-0.586   C188.157,104.615,193.822,107.873,196.113,113.339z"/>
	<polygon fill="#A9CFFF" points="128.332,289.307 139.503,269.788 119.694,258.665 111.539,279.945  "/>
	<path fill="#013B84" d="M94.108,305.626l-4.407-1.18c-1.215-0.325-2.183-1.244-2.573-2.44h0c-0.573-1.759,0.235-3.671,1.896-4.486   l10.549-5.182c2.65-1.302,4.856-3.356,6.344-5.906l8.011-13.735l0.996,0.193l3.283,1.671c0.875,0.445,1.223,1.515,0.778,2.39   l-1.14,2.24l6.224,0.602c3.396,0.328,6.723-1.11,8.809-3.81l1.533-1.983c0.645-0.835,1.982-0.325,1.907,0.728l-1.203,16.971   L94.108,305.626z"/>
	<path fill="#2888FF" d="M136.298,288.605l-0.208,1.647c-0.374,2.964-2.426,5.445-5.267,6.37l-30.202,9.831   c-0.581,0.189-1.2,0.225-1.799,0.105l-7.911-1.586l24.868-8.095c0.44-0.143,0.807-0.453,1.023-0.863l0,0   c1.082-2.059,2.926-3.614,5.138-4.335l12.97-4.222C135.654,287.215,136.396,287.829,136.298,288.605z"/>
	<path fill="#016EEA" d="M142.885,134.178l53.926-19.088c0,0-6.504-15.556-9.082-20.545c-4.405-8.525-13.601-18.584-21.162-24.491   l-25.386-19.832c-2.517-1.966-6.029-2.038-8.625-0.178L90.521,80.174L142.885,134.178z"/>
	<path fill="#016EEA" d="M80.794,94.216l-0.439-11.074C79.89,71.38,85.153,60.123,94.477,52.939l3.358-2.587   c12.869-9.916,30.851-9.744,43.527,0.417l15.424,12.363l-35.575,18.722L80.794,94.216z"/>
	<path fill="#016EEA" d="M64.903,119.745c7.809,3.868,17.274,0.672,21.142-7.136l14.464-29.205   c3.027-6.112,0.526-13.521-5.586-16.548l-1.666-0.825c-3.813-1.888-8.435-0.328-10.323,3.485l-23.528,47.506L64.903,119.745z"/>
	<g>
		<g>
			<polygon fill="#C78982" points="160.521,148.534 159.18,109.882 175.499,103.341 179.86,119.898 172.397,145.322    "/>
			<path fill="#C78982" d="M171.955,179.42c0.92-0.425,1.462-1.569,1.231-2.795l-4.976-18.286l-6.147-1.12l9.061,21.796     c0.112,0.339,0.478,0.523,0.817,0.411C171.945,179.423,171.95,179.421,171.955,179.42z"/>
			<path fill="#C78982" d="M173.325,176.073c0.974-0.284,1.678-1.334,1.631-2.581l-2.211-18.822l-5.913-2.019l5.731,22.9     c0.061,0.352,0.395,0.588,0.747,0.527C173.315,176.076,173.32,176.075,173.325,176.073z"/>
			<path fill="#C78982" d="M174.539,172.475c0.999-0.174,1.815-1.141,1.906-2.385l-0.117-18.951l-5.654-2.661l3.165,23.392     c0.021,0.356,0.328,0.628,0.684,0.607C174.528,172.476,174.534,172.476,174.539,172.475z"/>
			<path fill="#C78982" d="M175.784,167.394c0.963-0.099,1.777-0.995,1.905-2.217l0.374-13.831c0.081-2.998-1.515-5.847-4.103-7.324     l-1.097-0.626l2.269,23.349c0.009,0.354,0.293,0.644,0.635,0.65C175.773,167.393,175.779,167.394,175.784,167.394z"/>
			<path fill="#C78982" d="M177.153,149.831l-7.583,4.825c-3.286,0.979-6.775-0.91-7.753-4.195l-1.488-4.997     c-0.979-3.286,0.657-11.559,3.943-12.538l9.002,7.648c1.081,0.919,1.93,2.081,2.476,3.389l1.852,4.438     C177.819,148.924,177.63,149.528,177.153,149.831z"/>
			<path fill="#C78982" d="M160.324,141.327l4.774,16.03l-0.427-1.202c-0.042-0.114-0.092-0.226-0.153-0.335     c-0.615-1.118-2.02-1.525-3.14-0.914l-0.043,0.008c-0.699,0.388-1.197,1.06-1.365,1.843l-0.786,3.748     c-0.188,0.948-0.632,1.833-1.282,2.549c-0.459,0.476-0.991,0.86-1.54,1.023c-0.292,0.087-0.588,0.114-0.882,0.058     c-0.039-0.009-0.079-0.018-0.116-0.031c-0.476-0.169-0.725-0.692-0.557-1.168l2.852-11.426l0.064-2.808     c0.031-1.723,0.473-3.412,1.288-4.932l1.234-2.282C160.275,141.436,160.3,141.384,160.324,141.327z"/>
			<path fill="#C78982" d="M177.19,148.374c1.617,5.087-0.992,10.3-5.827,11.645c-4.835,1.345-7.89,0.768-11.684-6.775     c-2.398-4.769,0.992-10.3,5.827-11.645C170.341,140.254,175.573,143.287,177.19,148.374z"/>
		</g>
		<path fill="#016EEA" d="M178.322,126.421l5.383-23.063c-0.191-6.818-9.647-27.622-16.464-27.431l-1.858,0.052    c-4.253,0.119-7.605,3.663-7.486,7.917l1.276,39.975L178.322,126.421z"/>
	</g>
	<g>
		<path fill="#002652" d="M98.562,17.846c-0.529-5.562-8.204-9.382-17.143-8.531c-7.626,0.725-13.708,4.615-15.001,9.195    c-0.335,1.186,0.663,2.331,1.89,2.214L98.562,17.846z"/>
		<path fill="#002652" d="M96.589,10.098c-0.45-4.735-6.985-7.987-14.595-7.263c-6.492,0.618-11.67,3.929-12.771,7.828    c-0.285,1.01,0.565,1.984,1.609,1.885L96.589,10.098z"/>
		<path fill="#C78982" d="M77.001,23.369l1.867,20.91c0.297,2.465,2.911,3.926,5.166,2.886l20.915-9.638L77.001,23.369z"/>
		<path fill="#C78982" d="M79.913,35.905l-3.709,0.263c-1.546,0.11-2.481-1.673-1.513-2.883l4.236-5.292L79.913,35.905z"/>
		<path fill="#C78982" d="M87.997,9.181l0.475-0.057c2.007-0.242,3.83,1.189,4.072,3.196l1.521,12.62l-16.828,2.028l-0.426-3.535    C75.965,16.408,80.973,10.027,87.997,9.181z"/>
		<path fill="#C78982" d="M103.648,28.61l-17.983,8.274l16.376,35.594c0.397,0.864,1.641,0.815,1.969-0.078l8.788-23.901    L103.648,28.61z"/>
		
			<rect x="77.685" y="23.887" transform="matrix(0.9928 -0.1196 0.1196 0.9928 -3.0692 10.1483)" fill="#C78982" width="10.625" height="13.507"/>
		<path fill="#C78982" d="M92.243,6.133l5.006-0.476c5.471-0.52,10.328,3.493,10.849,8.964l2.356,24.766l-31.842,3.029    l-1.688-17.743C76.035,15.323,82.894,7.022,92.243,6.133z"/>
		<path opacity="0.1" fill="#1D2445" d="M91.16,43.729l2.27-1.198c1.001-0.528,2.096,0.529,1.602,1.548l-3.146,6.494"/>
		<path opacity="0.1" fill="#1D2445" d="M77.395,27.219l2.423-0.231c0.281-0.027,0.562,0.059,0.78,0.239l1.104,0.913    c0.732,0.605,0.367,1.793-0.578,1.883l-3.516,0.334"/>
		<path fill="#002652" d="M90.893,29.666l0.357,3.752c0.329,3.459-1.432,6.782-4.479,8.452h0v0c-0.258-2.713-2.667-4.704-5.38-4.446    l-3.224,0.307l0.651,6.839c0.237,2.493,2.91,3.966,5.144,2.834l8.855-4.486c1.304-0.66,2.07-2.052,1.932-3.507l-1.229-12.923l0,0    C91.916,26.641,90.741,28.063,90.893,29.666z"/>
		<path fill="#C78982" d="M82.403,42.977l-2.383,0.794c-0.634,0.211-1.299-0.222-1.362-0.887l-0.28-2.946l2.335-0.222    c1.251-0.119,2.361,0.798,2.48,2.049v0C83.243,42.304,82.916,42.806,82.403,42.977z"/>
		<path fill="#002652" d="M107.436,37.23l-7.532,4.243L96.737,8.178c-0.186-1.954,1.247-3.689,3.201-3.874l1.592-0.151    c7.582-0.721,14.026,5.479,13.597,13.083l-0.474,8.409C114.38,30.484,111.66,34.851,107.436,37.23z"/>
		<polygon fill="#93C3FF" points="95.554,25.087 79.869,26.579 79.269,24.018 95.307,22.493   "/>
		<path fill="#002652" d="M104.09,8.414L91.708,9.592l2.438,25.63c0.372,3.908,3.841,6.775,7.749,6.403l5.306-0.505L104.09,8.414z"/>
		<path fill="#002652" d="M95.744,6.87L81.165,8.256l0.791,8.313c0.372,3.908,3.841,6.775,7.749,6.403l7.503-0.714L95.744,6.87z"/>
		<path fill="#93C3FF" d="M79.18,25.032c0.036-0.003,0.069,0.023,0.072,0.059l0.489,5.138c0.003,0.036-0.023,0.069-0.06,0.072    l-3.43,0.326c-0.036,0.003-0.069-0.023-0.072-0.06L75.69,25.43c-0.003-0.036,0.023-0.068,0.06-0.072L79.18,25.032 M79.085,24.036    l-3.43,0.326c-0.586,0.056-1.016,0.576-0.96,1.162l0.489,5.138c0.056,0.586,0.576,1.016,1.162,0.961l3.43-0.326    c0.586-0.056,1.016-0.576,0.96-1.163l-0.489-5.138C80.192,24.41,79.671,23.98,79.085,24.036L79.085,24.036z"/>
		<path fill="#002652" d="M103.615,25.933c-0.529-5.562,6.288-10.76,15.227-11.61c7.626-0.725,14.332,1.948,16.466,6.202    c0.553,1.102-0.212,2.414-1.439,2.53L103.615,25.933z"/>
		<path fill="#002652" d="M98.273,33.581c-0.492-5.171,5.847-10.004,14.157-10.795c7.09-0.674,13.325,1.811,15.309,5.766    c0.514,1.024-0.197,2.244-1.338,2.353L98.273,33.581z"/>
		<path fill="#002652" d="M102.579,37.456c-4.314,0.41-6.191-5.273-2.503-7.548c2.008-1.239,4.503-2.09,7.255-2.351    c6.164-0.586,11.622,1.973,13.398,5.948c0.46,1.029-0.144,2.239-1.135,2.333L102.579,37.456z"/>
		<path fill="#002652" d="M100.751,41.763c-3.178,0.302-4.561-3.885-1.844-5.561c1.479-0.913,3.318-1.54,5.345-1.732    c4.541-0.432,8.562,1.454,9.87,4.382c0.339,0.758-0.106,1.65-0.837,1.719L100.751,41.763z"/>
		<path fill="#002652" d="M98.494,17.138c-0.529-5.562,6.288-10.76,15.227-11.61c7.626-0.725,14.332,1.948,16.466,6.202    c0.553,1.102-0.212,2.414-1.439,2.53L98.494,17.138z"/>
		<path fill="#002652" d="M84.057,11.729c-0.529-5.562,6.288-10.76,15.227-11.61c7.626-0.725,14.332,1.948,16.466,6.202    c0.553,1.102-0.212,2.414-1.439,2.53L84.057,11.729z"/>
	</g>
	<g>
		<path fill="#C78982" d="M13.283,112.899l6.726,4.867c3.866,1.847,8.308,1.355,11.69-0.998c0.735-0.495,1.399-1.078,2.015-1.744    c0.077-0.142,0.131-0.287,0.188-0.418l0.201-0.471l9.168-9.107l-4.813,0.5l-14.397,1.681l-1.15-0.562    c-0.226,0.048-0.434,0.071-0.645,0.08l-8.678,0.542C12.657,107.33,13.283,112.899,13.283,112.899z"/>
		<g>
			<path fill="#C78982" d="M3.699,114.977c0.025-0.051,0.072-0.282,0.072-0.282s0.832-2.879,0.843-2.87     c0.083-0.272,0.33-1.081,0.449-1.443c0.095-0.334,0.219-0.591,0.417-0.876c0.52-0.827,1.784-2.689,2.33-3.44     c0.497-0.648,1.05-1.143,1.731-1.514c1.024-0.733,5.106-3.157,5.106-3.157l4.026,4.477l-3.986,0.875l1.056,5.619     c0,0,0.474,0.731,1.318,2.143c0.844,1.412-0.359,3.809-1.274,2.679l-1.541-1.806l0.025-0.009     c-0.088-0.112-0.398-0.503-0.575-0.694c-0.157-0.201-0.341-0.478-0.45-0.783c-0.183-0.515-0.535-1.351-0.86-2.132l-0.128,1.157     c0,0,0.223,0.99,0.718,2.742c0.494,1.751-1.555,3.935-2.197,2.493L9.814,115.8c-0.136-0.38-0.268-0.633-0.43-1.089     c-0.159-0.328-0.243-0.684-0.276-1.016c-0.073-0.636-0.173-1.73-0.263-2.722l-0.64,0.903l-0.803,1.955     c-0.221,0.463-0.493,0.903-0.895,1.217C5.276,116.043,3.69,115.794,3.699,114.977z"/>
			<path opacity="0.1" fill="#1D2445" d="M3.699,114.977c0.025-0.051,0.072-0.282,0.072-0.282s0.832-2.879,0.843-2.87     c0.083-0.272,0.33-1.081,0.449-1.443c0.095-0.334,0.219-0.591,0.417-0.876c0.52-0.827,1.784-2.689,2.33-3.44     c0.497-0.648,1.05-1.143,1.731-1.514c1.024-0.733,5.106-3.157,5.106-3.157l4.026,4.477l-3.986,0.875l1.056,5.619     c0,0,0.474,0.731,1.318,2.143c0.844,1.412-0.359,3.809-1.274,2.679l-1.541-1.806l0.025-0.009     c-0.088-0.112-0.398-0.503-0.575-0.694c-0.157-0.201-0.341-0.478-0.45-0.783c-0.183-0.515-0.535-1.351-0.86-2.132l-0.128,1.157     c0,0,0.223,0.99,0.718,2.742c0.494,1.751-1.555,3.935-2.197,2.493L9.814,115.8c-0.136-0.38-0.268-0.633-0.43-1.089     c-0.159-0.328-0.243-0.684-0.276-1.016c-0.073-0.636-0.173-1.73-0.263-2.722l-0.64,0.903l-0.803,1.955     c-0.221,0.463-0.493,0.903-0.895,1.217C5.276,116.043,3.69,115.794,3.699,114.977z"/>
			<path fill="#C78982" d="M12.511,111.566c0,0-3.66-0.54-7.064-1.085c-3.405-0.545-2.369-3.653,0.309-3.706l7.142-0.141     L12.511,111.566L12.511,111.566L12.511,111.566z"/>
			<path fill="#C78982" d="M0.026,108.62l0.024-0.052l0,0l0,0l0.025-0.051l0.023-0.026l1.337-2.17l0,0l0,0     c0.446-0.672,0.816-1.317,1.088-1.757c0.199-0.284,0.373-0.518,0.674-0.754c0.753-0.652,2.435-2.064,3.163-2.665     c0.603-0.471,1.284-0.842,2.047-0.985l9.096-1.992c1.474-0.31,3.065,0.194,4.008,1.4l5.204,6.328     c1.414,1.809,1.99,2.208,4.139,2.472l13.085-0.294l1.269,11.313c-0.164,0.014-15.765-0.528-15.921-0.515     c0.326-0.006-1.277,0.085-1.277,0.085c-3.089,0.073-3.072-0.103-5.244-0.382l-0.886-0.147c-4.198-0.541-5.184-6.144-9.371-6.858     l0.34-4.94l1.734-0.06c1.734-0.06,2.837-2.378,1.765-2.382c-1.072-0.004-8.012-0.02-8.012-0.02l-3.138,2.614l-1.294,1.658     c-0.323,0.415-0.725,0.729-1.206,0.943C1.229,110.076-0.214,109.39,0.026,108.62z"/>
		</g>
		<path fill="#016EEA" d="M38.56,119.491l31.298,1.816c6.461,0.375,11.857-4.863,11.674-11.332l-0.248-8.775l-16.997,0.685    l-26.511,3.64L38.56,119.491z"/>
	</g>
</g>

            </g>
        </g>
    </g>
    
    <!-- ITEM 7 -->
    <g>
        <defs>
            <clipPath id="clip-path-id-viewbox-item-7">
                <rect x="0.0" y="0.0" width="179.097" height="306.258"/>
            </clipPath>
        </defs>
        <g transform="translate(78.0 211.0) rotate(0.0 89.5 153.0) scale(0.9994583940546184 0.9991575730266639)">
            <g clip-path="url(#clip-path-id-viewbox-item-7)" transform="translate(-0.0 -0.0)">
                
<g>
	<path fill="#ED956E" d="M78.822,266.031l8.983,23.992c0.188,0.117,0.354,0.221,0.542,0.338l13.979-4.676L82.891,191.62   l-0.102-0.016c-9.627-1.554-18.253,6.125-17.827,15.866l0,0c0.181,4.126,0.384,8.258,0.446,12.388   c0.06,4.041,0.037,8.134,0.927,12.098c1.271,5.661,3.839,10.975,5.865,16.388c2.204,5.886,4.407,11.771,6.611,17.657   C78.814,266.011,78.818,266.021,78.822,266.031z"/>
</g>
<path fill="#ED956E" d="M85.098,283.412l-3.178,7.088c-1.603,3.575,1.013,7.615,4.931,7.615h6.358c0,0,16.649,8.061,18.252,8.112  c2.202,0.07,21.801,0,21.801,0v-0.771c0-2.74-2.051-5.047-4.773-5.367l-12.465-1.466l-15.21-17.238L85.098,283.412z"/>
<path fill="#013B84" d="M85.098,283.412l-3.178,7.088c-1.603,3.575,1.013,7.615,4.931,7.615h6.358c0,0,16.65,8.051,18.252,8.112  c1.841,0.07,21.801,0,21.801,0v-0.771c0-2.74-2.051-5.047-4.773-5.367l-12.465-1.466l-22.354-5.514L85.098,283.412z"/>
<polygon fill="#013B84" points="94.437,295.817 82.389,295.817 83.868,306.003 94.437,306.003 "/>
<path fill="#2888FF" d="M8.824,144.478l50.347,57.135c3.523,3.998,9.621,4.383,13.619,0.86l7.68-6.767  c2.784-2.453,3.352-6.575,1.337-9.69l-10.675-16.497l-40.192-62.114c-3.77-5.167-11.164-5.977-15.962-1.749l-3.919,3.454  C0.674,118.259-0.326,134.094,8.824,144.478z"/>
<path fill="#2888FF" d="M66.858,162.48l-29.04-51.752L22.643,95.624L7.349,109.101c-8.986,7.918-9.851,21.622-1.933,30.607  l38.151,43.295L66.858,162.48z"/>
<path fill="#ED956E" d="M79.063,38.62l15.864,5.828l9.051-24.638l-25.807-9.48l-5.398,14.695  C70.756,30.516,73.572,36.602,79.063,38.62z"/>
<polygon fill="#ED956E" points="77.886,66.478 66.444,52.364 75.478,29.431 83.47,32.684 90.481,35.538 "/>
<path fill="#ED956E" d="M107.447,22.031l-2.305,6.275c-0.084,0.228-0.21,0.438-0.373,0.618l-1.592,1.763  c-0.535,0.592-0.642,1.455-0.269,2.16l0.334,0.631l-4.458,12.135c-0.725,1.974-2.917,2.983-4.889,2.25L71.411,39.5l2.91-7.635  L107.447,22.031z"/>
<path fill="#ED956E" d="M97.454,39.559l5.868-0.748c1.327-0.169,2.068-1.621,1.426-2.794l-3.584-6.557L97.454,39.559z"/>
<path opacity="0.07" fill="#002652" d="M86.459,44.87l-1.07-0.441c-1.348-0.555-2.818,0.472-2.76,1.928l0.281,7.118"/>
<path opacity="0.07" fill="#002652" d="M104.403,28.526l-3.155-1.159c-0.284-0.104-0.597-0.091-0.871,0.035l-1.389,0.643  c-0.921,0.426-0.867,1.753,0.086,2.103l3.668,1.347"/>
<path opacity="0.07" fill="#002652" d="M97.507,39.277l0.115,0.944c0.063,0.517,0.335,0.986,0.754,1.296l1.438,1.066l0.811-2.209  L97.507,39.277z"/>
<path fill="#002652" d="M101.196,4.936l-0.533-0.196c-2.255-0.828-4.755,0.328-5.583,2.583l-1.788,4.868l-0.502,1.365l-2.919,7.947  l18.908,6.946l1.459-3.972C113.137,16.584,109.089,7.835,101.196,4.936z"/>
<path fill="#002652" d="M92.126,22.102l-21.247-7.805l1.739-4.735C75.397,1.999,83.78-1.88,91.344,0.899l4.474,1.643  c1.7,0.625,2.572,2.509,1.948,4.21L92.126,22.102z"/>
<path fill="#BEDBFF" d="M42.113,118.65l-37.874-0.291H1.153c0.389-7.879,6.916-15.295,12.68-20.679l14.465-13.507  c4.421-4.128,7.956-9.113,10.388-14.651l14.817-22.875c2.555-3.945,6.936-6.327,11.636-6.327h0.573  c7.575,0,13.716,6.141,13.716,13.716v21.241c0,5.098-2.92,9.746-7.513,11.958L60.48,92.741L42.113,118.65z"/>
<path fill="#002652" d="M80.895,36.927l-5.061-1.859c-4.035-1.482-6.104-5.955-4.622-9.99l2.428-6.608  c0.771-2.1-0.305-4.428-2.405-5.199l-0.947-0.348l1.442-3.925l26.281,9.654L80.895,36.927z"/>
<path fill="#ED956E" d="M86.542,32.398l3.169,1.164l2.136-6.747c0.69-2.181-0.456-4.519-2.604-5.308l-0.23-0.084  c-2.207-0.811-4.556,0.789-4.611,3.139l-0.107,4.536C84.262,30.565,85.165,31.892,86.542,32.398z"/>
<g>
	<path fill="#ED956E" d="M105.832,100.358l46.449,0.692l0.154-9.442l-31.591-5.21c-1.661-0.247-6.167-0.723-7.845-0.748   l-11.165-0.867l-0.188,11.72C101.615,98.602,103.734,100.327,105.832,100.358z"/>
</g>
<path fill="#BEDBFF" d="M102.55,99.009L69.066,66c-3.558-3.507-7.627-14.219-4.161-17.817l0.151-0.284  c3.729-3.871,9.83-3.41,13.333,0.667l31.781,36.723l3.144,0.314l-5.345,13.676C106.924,101.338,104.194,100.63,102.55,99.009z"/>
<g>
	<path fill="#ED956E" d="M158.807,94.215l6.257,3.427c0.677,0.37,4.7,4.841,4.7,4.841l-10.346,1.083   c-0.81,0.036-9.078-0.58-8.97-3.329l-3.108-4.752v0c-1.631-1.903,0.012-4.804,2.483-4.383l3.692,0.629   C156.171,92.269,157.261,93.367,158.807,94.215z"/>
	<path fill="#ED956E" d="M179.022,108.156c-0.47,0.626-1.42,0.85-2.309,0.478l-13.004-6.71l0.147-4.823l14.995,10.361   c0.238,0.139,0.318,0.445,0.178,0.683L179.022,108.156z"/>
	<path opacity="0.1" fill="#1D2445" d="M179.022,108.156c-0.47,0.626-1.42,0.85-2.309,0.478l-13.004-6.71l0.147-4.823l14.995,10.361   c0.238,0.139,0.318,0.445,0.178,0.683L179.022,108.156z"/>
	<path fill="#ED956E" d="M167.955,101.01c0.368,0.755,0.452,1.618,0.234,2.429l-0.927,3.465l-0.356,1.336   c-0.042,0.272-0.296,0.44-0.568,0.398c-0.002-0.01-0.002-0.01-0.012-0.008c-0.732-0.222-1.244-1.023-1.202-1.966l0.912-6.887   c0.084-0.634,0.94-0.773,1.22-0.198L167.955,101.01z"/>
	<path fill="#ED956E" d="M166.474,108.787c-0.198,0.152-0.444,0.227-0.693,0.211l-4.494-0.278l-1.38-0.085   c-0.275,0.013-0.49-0.203-0.503-0.478c0.009-0.004,0.009-0.004,0.006-0.013c0.073-0.761,0.757-1.422,1.689-1.568l4.428-0.301   C166.912,106.182,167.576,107.944,166.474,108.787L166.474,108.787z"/>
	<path fill="#ED956E" d="M164.485,108.058l-4.88-0.302l-1.38-0.085c-0.275,0.013-0.49-0.203-0.503-0.478   c0.009-0.004,0.009-0.004,0.006-0.013c0.073-0.761,0.757-1.422,1.689-1.568l5.757-0.391c0.988-0.067,1.462,1.19,0.675,1.792   L164.485,108.058z"/>
	<path fill="#ED956E" d="M167.024,99.376l-1.042,6.979l-2.311-0.562c-0.042,0.272-0.296,0.44-0.568,0.398   c-0.002-0.01-0.002-0.01-0.012-0.008c-0.732-0.222-1.244-1.023-1.202-1.966l0.886-6.693c0.092-0.692,1.947-0.483,2.604,0.402   L167.024,99.376z"/>
	<path fill="#ED956E" d="M162.931,106.576l-4.88-0.302l-1.38-0.085c-0.275,0.013-0.49-0.203-0.503-0.478   c0.009-0.004,0.009-0.004,0.006-0.013c0.073-0.761,0.757-1.422,1.689-1.568l5.757-0.391c0.988-0.067,1.462,1.19,0.676,1.792   L162.931,106.576z"/>
</g>
<polygon fill="#2888FF" points="84.39,189.232 87.056,200.899 57.056,210.566 29.39,164.566 64.413,158.853 "/>
<path fill="#002652" d="M57.555,48.958L57.555,48.958c6.44,0,11.661-5.221,11.661-11.661V20.562c0-5.395,3.405-10.203,8.494-11.993  l0,0V3.413l-7.577,0c-6.947,0-12.579,5.632-12.579,12.579V48.958z"/>
<line fill="none" stroke="#2888FF" stroke-width="3" stroke-linecap="round" stroke-miterlimit="10" x1="77.163" y1="3.026" x2="72.793" y2="14.924"/>

            </g>
        </g>
    </g>
    
    <!-- ITEM 8 -->
    <g>
        <defs>
            <clipPath id="clip-path-id-viewbox-item-8">
                <rect x="0.0" y="0.0" width="87.199" height="38.667"/>
            </clipPath>
        </defs>
        <g transform="translate(552.0 294.0) rotate(0.0 -43.5 19.0) scale(-0.9977178637369695 0.9827501487056146)">
            <g clip-path="url(#clip-path-id-viewbox-item-8)" transform="translate(-0.0 -0.0)">
                
<g>
	<path fill="#2888FF" d="M39.878,38.667H3c-1.657,0-3-1.343-3-3l0,0h42.878l0,0C42.878,37.324,41.535,38.667,39.878,38.667z"/>
	<g>
		<path fill="#2888FF" d="M73.459,38.667h-57c-1.105,0-1.716-0.895-1.365-2L26.1,2c0.351-1.105,1.53-2,2.635-2h57    c1.105,0,1.716,0.895,1.365,2L76.094,36.667C75.744,37.771,74.564,38.667,73.459,38.667z"/>
		<path fill="#93C3FF" d="M50.396,24.167h-1.667c-2.209,0-3.431-1.791-2.73-4l0.529-1.667c0.701-2.209,3.061-4,5.27-4h1.667    c2.209,0,3.431,1.791,2.73,4l-0.529,1.667C54.964,22.376,52.605,24.167,50.396,24.167z"/>
	</g>
</g>

            </g>
        </g>
    </g>
    
    <!-- ITEM 9 -->
    <g>
        <defs>
            <clipPath id="clip-path-id-viewbox-item-9">
                <rect x="0.0" y="0.0" width="60.292" height="38.408"/>
            </clipPath>
        </defs>
        <g transform="translate(345.0 297.0) rotate(0.0 30.0 19.0) scale(0.9951569030717177 0.9893772130806082)">
            <g clip-path="url(#clip-path-id-viewbox-item-9)" transform="translate(-0.0 -0.0)">
                
<path fill="#F3F4F6" d="M3,38.408h54.292c1.657,0,3-1.343,3-3V3c0-1.657-1.343-3-3-3H3C1.343,0,0,1.343,0,3v32.408  C0,37.065,1.343,38.408,3,38.408z"/>
<path fill="#FFFFFF" d="M31.612,23.67H28.68c-1.657,0-3-1.343-3-3v-2.932c0-1.657,1.343-3,3-3h2.932c1.657,0,3,1.343,3,3v2.932  C34.612,22.327,33.269,23.67,31.612,23.67z"/>

            </g>
        </g>
    </g>
    
    <!-- ITEM 10 -->
    <g>
        <defs>
            <clipPath id="clip-path-id-viewbox-item-10">
                <rect x="0.0" y="0.0" width="66.003" height="39.14"/>
            </clipPath>
        </defs>
        <g transform="translate(219.0 295.0) rotate(0.0 33.0 19.5) scale(0.9999545475205672 0.9964230965763924)">
            <g clip-path="url(#clip-path-id-viewbox-item-10)" transform="translate(-0.0 -0.0)">
                
<g>
	<polygon fill="#013B84" points="36.144,36.415 42.548,36.415 64.773,0 58.369,0  "/>
	<path fill="#2888FF" d="M39.878,39.14H3c-1.657,0-3-1.343-3-3v0h42.878v0C42.878,37.797,41.535,39.14,39.878,39.14z"/>
	<path fill="#2888FF" d="M65.557,4.128L46.202,35.519c-0.87,1.41-2.718,1.849-4.128,0.979l0,0L64.577,0v0   C65.988,0.87,66.426,2.718,65.557,4.128z"/>
</g>

            </g>
        </g>
    </g>
    
</svg>