<svg id="Layer_1" data-name="Layer 1" xmlns="http://www.w3.org/2000/svg" viewBox="0 0 180 180"><defs><style>.cls-1{fill:#20117c;}.cls-2{fill:#5e3fde;}</style></defs><circle class="cls-1" cx="104.29" cy="137.05" r="4"/><path class="cls-1" d="M117.89,129a4,4,0,1,0,4,4A4,4,0,0,0,117.89,129Z"/><path class="cls-1" d="M30.34,116.19a4,4,0,1,0,4,4A4,4,0,0,0,30.34,116.19Z"/><path class="cls-1" d="M16.73,111.71a4,4,0,1,0,4,4A4,4,0,0,0,16.73,111.71Z"/><polygon class="cls-1" points="20.63 20.59 66.96 106.56 35.18 20.59 20.63 20.59"/><polygon class="cls-1" points="63.23 20.86 79.59 51.29 87.17 38.33 84.66 33.68 94.76 33.68 66.96 106.56 117.1 20.86 63.23 20.86"/><polygon class="cls-2" points="67.42 80.41 35.18 20.59 66.96 106.56 94.76 33.68 67.42 80.41"/><polygon class="cls-2" points="109.76 80.37 99.25 60.81 109.31 106.6 144.55 20.59 109.76 80.37"/><polygon class="cls-1" points="91.67 73.77 109.31 106.6 99.25 60.81 91.67 73.77"/><path class="cls-1" d="M179.94,96c0-.06,0-.12,0-.18a2.4,2.4,0,0,0-.12-.38l-.07-.18a2.32,2.32,0,0,0-.21-.38.75.75,0,0,0-.07-.12,3.47,3.47,0,0,0-.35-.43l-.1-.09a3.92,3.92,0,0,0-.33-.27l-.17-.11-.33-.18-.19-.08-.08,0L136.35,78.43l-3.29,5.66,34.31,12.48L90,124.73,12.63,96.57,44.82,84.86l-3.09-5.73L2.12,93.55l-.08,0-.19.08-.33.18L1.35,94a3.92,3.92,0,0,0-.33.27l-.1.09a3.47,3.47,0,0,0-.35.43.75.75,0,0,0-.07.12,2.32,2.32,0,0,0-.21.38l-.07.18a2.4,2.4,0,0,0-.12.38c0,.06,0,.12,0,.18a2.86,2.86,0,0,0-.06.58v28a3.22,3.22,0,0,0,2.12,3L88.9,159.22l.27.07a2,2,0,0,0,.23.06,3,3,0,0,0,1.2,0,2,2,0,0,0,.23-.06l.27-.07,86.78-31.59a3.22,3.22,0,0,0,2.12-3v-28A2.86,2.86,0,0,0,179.94,96Zm-93.16,55.6L6.44,122.35V101.17l80.34,29.25Zm86.78-29.24L93.22,151.59V130.42l80.34-29.25Z"/><polygon class="cls-1" points="144.55 20.59 109.31 106.6 159.37 20.59 144.55 20.59"/></svg>