<svg id="Layer_1" data-name="Layer 1" xmlns="http://www.w3.org/2000/svg" viewBox="0 0 512 512"><defs><style>.cls-1{fill:#20117c;}.cls-2{fill:#5e3fde;}</style></defs><polygon class="cls-1" points="0 97.3 170.99 414.55 53.71 97.3 0 97.3"/><polygon class="cls-1" points="157.22 98.31 217.57 210.59 245.54 162.77 236.31 145.59 273.56 145.59 170.99 414.55 356 98.31 157.22 98.31"/><polygon class="cls-2" points="172.68 318.03 53.71 97.3 170.99 414.55 273.56 145.59 172.68 318.03"/><polygon class="cls-2" points="328.9 317.88 290.12 245.72 327.26 414.7 457.29 97.3 328.9 317.88"/><polygon class="cls-1" points="262.14 293.54 327.26 414.7 290.12 245.72 262.14 293.54"/><polygon class="cls-1" points="457.29 97.3 327.26 414.7 512 97.3 457.29 97.3"/></svg>