<?xml version="1.0" encoding="UTF-8"?>
<svg xmlns="http://www.w3.org/2000/svg" xmlns:xlink="http://www.w3.org/1999/xlink" viewBox="0 0 256 256" width="256px" height="256px">
<defs>
<linearGradient id="linear0" gradientUnits="userSpaceOnUse" x1="29.5625" y1="81.519943" x2="29.5625" y2="137.9655" gradientTransform="matrix(4,0,0,4,0,0)">
<stop offset="0" style="stop-color:rgb(32.156864%,30.980393%,72.941178%);stop-opacity:1;"/>
<stop offset="1" style="stop-color:rgb(56.078434%,55.29412%,78.039217%);stop-opacity:1;"/>
</linearGradient>
<linearGradient id="linear1" gradientUnits="userSpaceOnUse" x1="112.875" y1="22.701309" x2="112.875" y2="156.845184" gradientTransform="matrix(1.488372,0,0,1.488372,0,0)">
<stop offset="0" style="stop-color:rgb(17.647059%,16.862746%,43.137255%);stop-opacity:1;"/>
<stop offset="1" style="stop-color:rgb(30.588236%,29.411766%,60.000002%);stop-opacity:1;"/>
</linearGradient>
<linearGradient id="linear2" gradientUnits="userSpaceOnUse" x1="86" y1="22.701309" x2="86" y2="156.845184" gradientTransform="matrix(1.488372,0,0,1.488372,0,0)">
<stop offset="0" style="stop-color:rgb(17.647059%,16.862746%,43.137255%);stop-opacity:1;"/>
<stop offset="1" style="stop-color:rgb(30.588236%,29.411766%,60.000002%);stop-opacity:1;"/>
</linearGradient>
<linearGradient id="linear3" gradientUnits="userSpaceOnUse" x1="112.875" y1="22.701309" x2="112.875" y2="156.845184" gradientTransform="matrix(1.488372,0,0,1.488372,0,0)">
<stop offset="0" style="stop-color:rgb(17.647059%,16.862746%,43.137255%);stop-opacity:1;"/>
<stop offset="1" style="stop-color:rgb(30.588236%,29.411766%,60.000002%);stop-opacity:1;"/>
</linearGradient>
<linearGradient id="linear4" gradientUnits="userSpaceOnUse" x1="51.006062" y1="15.45313" x2="51.006062" y2="61.159439" gradientTransform="matrix(1.488372,0,0,1.488372,0,0)">
<stop offset="0" style="stop-color:rgb(32.156864%,30.980393%,72.941178%);stop-opacity:1;"/>
<stop offset="1" style="stop-color:rgb(56.078434%,55.29412%,78.039217%);stop-opacity:1;"/>
</linearGradient>
</defs>
<g id="surface25571825">
<path style=" stroke:none;fill-rule:nonzero;fill:url(#linear0);" d="M 32 124 L 56 124 L 56 200 L 32 200 Z M 32 124 "/>
<path style=" stroke:none;fill-rule:nonzero;fill:url(#linear1);" d="M 168 112 C 181.234375 112 192 101.234375 192 88 C 192 74.765625 181.234375 64 168 64 C 154.765625 64 144 74.765625 144 88 C 144 101.234375 154.765625 112 168 112 Z M 168 72 C 176.824219 72 184 79.175781 184 88 C 184 96.824219 176.824219 104 168 104 C 159.175781 104 152 96.824219 152 88 C 152 79.175781 159.175781 72 168 72 Z M 168 72 "/>
<path style=" stroke:none;fill-rule:nonzero;fill:url(#linear2);" d="M 225.707031 155.261719 C 221.960938 152.488281 216.957031 151.679688 211.96875 153.058594 L 150.8125 169.96875 C 151.5625 168.113281 152 166.09375 152 163.964844 C 152 155.160156 144.824219 148 136 148 L 98.492188 148 C 95.828125 144 89.042969 132 80 132 L 64 132 L 64 128 C 64 121.382812 58.617188 116 52 116 L 36 116 C 29.382812 116 24 121.382812 24 128 L 24 196 C 24 202.617188 29.382812 208 36 208 L 52 208 C 58.617188 208 64 202.621094 64 196 L 64 192.992188 L 112.554688 225.800781 C 118.652344 229.929688 125.746094 232 132.855469 232 C 139.425781 232 146.003906 230.230469 151.824219 226.675781 L 224.515625 182.273438 C 229.132812 179.460938 232 174.347656 232 168.941406 L 232 167.6875 C 232 162.765625 229.707031 158.234375 225.707031 155.261719 Z M 56 196 C 56 198.207031 54.203125 200 52 200 L 48 200 L 48 184 L 40 184 L 40 200 L 36 200 C 33.796875 200 32 198.207031 32 196 L 32 128 C 32 125.792969 33.796875 124 36 124 L 52 124 C 54.203125 124 56 125.796875 56 128 Z M 224 168.941406 C 224 171.578125 222.601562 174.070312 220.347656 175.449219 L 147.65625 219.847656 C 138.195312 225.621094 126.179688 225.359375 117.039062 219.171875 L 64 183.339844 L 64 140 L 80 140 C 84.234375 140 89.875 148.136719 92.351562 153.636719 L 93.414062 156 L 136 156 C 140.410156 156 144 159.570312 144 163.960938 C 144 168.390625 140.410156 172 136 172 L 96 172 L 96 180 L 144 180 L 214.097656 160.773438 C 216.660156 160.058594 219.214844 160.398438 220.9375 161.6875 C 222.882812 163.132812 224 165.320312 224 167.6875 Z M 224 168.941406 "/>
<path style=" stroke:none;fill-rule:nonzero;fill:url(#linear3);" d="M 128 104 L 129.375 104 L 128.402344 104.972656 C 125.378906 107.992188 123.714844 112.007812 123.714844 116.285156 C 123.714844 120.554688 125.378906 124.570312 128.402344 127.597656 C 131.429688 130.621094 135.445312 132.285156 139.714844 132.285156 C 143.992188 132.285156 148.007812 130.621094 151.027344 127.597656 L 152 126.625 L 152 128 C 152 136.824219 159.175781 144 168 144 C 176.824219 144 184 136.824219 184 128 L 184 126.625 L 184.972656 127.597656 C 187.992188 130.621094 192.007812 132.285156 196.285156 132.285156 C 200.554688 132.285156 204.570312 130.621094 207.597656 127.597656 C 210.621094 124.570312 212.285156 120.554688 212.285156 116.285156 C 212.285156 112.007812 210.621094 107.992188 207.597656 104.972656 L 206.625 104 L 208 104 C 216.824219 104 224 96.824219 224 88 C 224 79.175781 216.824219 72 208 72 L 206.625 72 L 207.597656 71.027344 C 210.621094 68.007812 212.285156 63.992188 212.285156 59.714844 C 212.285156 55.445312 210.621094 51.429688 207.597656 48.402344 C 201.542969 42.351562 191.007812 42.359375 184.972656 48.402344 L 184 49.375 L 184 48 C 184 39.175781 176.824219 32 168 32 C 159.175781 32 152 39.175781 152 48 L 152 49.375 L 151.027344 48.402344 C 144.992188 42.359375 134.449219 42.351562 128.402344 48.402344 C 125.378906 51.429688 123.714844 55.445312 123.714844 59.714844 C 123.714844 63.992188 125.378906 68.007812 128.402344 71.027344 L 129.375 72 L 128 72 C 119.175781 72 112 79.175781 112 88 C 112 96.824219 119.175781 104 128 104 Z M 145.371094 121.941406 C 142.347656 124.964844 137.085938 124.964844 134.058594 121.941406 C 132.546875 120.429688 131.714844 118.421875 131.714844 116.285156 C 131.714844 114.148438 132.546875 112.140625 134.058594 110.628906 L 134.664062 110.023438 C 137.632812 114.527344 141.472656 118.367188 145.976562 121.335938 Z M 201.941406 121.941406 C 198.914062 124.964844 193.652344 124.964844 190.628906 121.941406 L 190.023438 121.335938 C 194.527344 118.367188 198.367188 114.527344 201.335938 110.023438 L 201.941406 110.628906 C 203.453125 112.140625 204.285156 114.148438 204.285156 116.285156 C 204.285156 118.421875 203.453125 120.429688 201.941406 121.941406 Z M 190.628906 54.058594 C 193.652344 51.035156 198.914062 51.035156 201.941406 54.058594 C 203.453125 55.570312 204.285156 57.578125 204.285156 59.714844 C 204.285156 61.851562 203.453125 63.859375 201.941406 65.371094 L 201.335938 65.976562 C 198.367188 61.472656 194.527344 57.632812 190.023438 54.664062 Z M 134.058594 54.058594 C 137.085938 51.035156 142.347656 51.035156 145.371094 54.058594 L 145.976562 54.664062 C 141.472656 57.632812 137.632812 61.472656 134.664062 65.976562 L 134.058594 65.371094 C 132.546875 63.859375 131.714844 61.851562 131.714844 59.714844 C 131.714844 57.578125 132.546875 55.570312 134.058594 54.058594 Z M 128 80 L 136.921875 80 L 137.859375 77.332031 C 141.097656 68.195312 148.191406 61.097656 157.328125 57.863281 L 160 56.921875 L 160 48 C 160 43.589844 163.589844 40 168 40 C 172.410156 40 176 43.589844 176 48 L 176 56.921875 L 178.667969 57.859375 C 187.804688 61.097656 194.902344 68.191406 198.136719 77.328125 L 199.078125 80 L 208 80 C 212.410156 80 216 83.589844 216 88 C 216 92.410156 212.410156 96 208 96 L 199.078125 96 L 198.140625 98.667969 C 194.902344 107.804688 187.808594 114.902344 178.671875 118.136719 L 176 119.078125 L 176 128 C 176 132.410156 172.410156 136 168 136 C 163.589844 136 160 132.410156 160 128 L 160 119.078125 L 157.332031 118.140625 C 148.195312 114.902344 141.097656 107.808594 137.863281 98.671875 L 136.921875 96 L 128 96 C 123.589844 96 120 92.410156 120 88 C 120 83.589844 123.589844 80 128 80 Z M 128 80 "/>
<path style=" stroke:none;fill-rule:nonzero;fill:url(#linear4);" d="M 101.914062 48 L 101.074219 48 C 98.914062 48 97.835938 45.398438 99.355469 43.878906 L 99.957031 43.28125 C 102.316406 40.921875 102.316406 37.121094 99.957031 34.800781 L 97.117188 31.960938 C 94.796875 29.601562 90.996094 29.601562 88.636719 31.960938 L 88.035156 32.558594 C 86.515625 34.078125 83.914062 33 83.914062 30.839844 L 83.914062 30 C 83.914062 26.679688 81.234375 24 77.914062 24 L 73.914062 24 C 70.597656 24 67.914062 26.679688 67.914062 30 L 67.914062 30.839844 C 67.914062 33 65.316406 34.078125 63.796875 32.558594 L 63.195312 31.960938 C 60.835938 29.601562 57.035156 29.601562 54.714844 31.960938 L 51.875 34.800781 C 49.515625 37.121094 49.515625 40.921875 51.875 43.28125 L 52.476562 43.878906 C 53.996094 45.398438 52.917969 48 50.757812 48 L 49.914062 48 C 46.597656 48 43.914062 50.679688 43.914062 54 L 43.914062 58 C 43.914062 61.320312 46.597656 64 49.914062 64 L 50.757812 64 C 52.914062 64 53.996094 66.601562 52.476562 68.121094 L 51.875 68.71875 C 49.515625 71.078125 49.515625 74.878906 51.875 77.199219 L 54.714844 80.039062 C 57.035156 82.398438 60.835938 82.398438 63.195312 80.039062 L 63.796875 79.441406 C 65.316406 77.921875 67.914062 79 67.914062 81.160156 L 67.914062 82 C 67.914062 85.320312 70.597656 88 73.914062 88 L 77.914062 88 C 81.234375 88 83.914062 85.320312 83.914062 82 L 83.914062 81.160156 C 83.914062 79 86.515625 77.921875 88.035156 79.441406 L 88.636719 80.039062 C 90.996094 82.398438 94.796875 82.398438 97.117188 80.039062 L 99.957031 77.199219 C 102.316406 74.878906 102.316406 71.078125 99.957031 68.71875 L 99.355469 68.121094 C 97.835938 66.601562 98.914062 64 101.074219 64 L 101.914062 64 C 105.234375 64 107.914062 61.320312 107.914062 58 L 107.914062 54 C 107.914062 50.679688 105.234375 48 101.914062 48 Z M 75.914062 68 C 69.277344 68 63.914062 62.640625 63.914062 56 C 63.914062 49.359375 69.277344 44 75.914062 44 C 82.554688 44 87.914062 49.359375 87.914062 56 C 87.914062 62.640625 82.554688 68 75.914062 68 Z M 75.914062 68 "/>
</g>
</svg>
