<?xml version="1.0" encoding="UTF-8"?>
<svg xmlns="http://www.w3.org/2000/svg" xmlns:xlink="http://www.w3.org/1999/xlink" viewBox="0 0 2048 2048" width="2048px" height="2048px">
<defs>
<linearGradient id="linear0" gradientUnits="userSpaceOnUse" x1="102.125" y1="68.53125" x2="102.125" y2="87.370621" gradientTransform="matrix(11.906977,0,0,11.906977,0,0)">
<stop offset="0" style="stop-color:rgb(32.156864%,30.980393%,72.941178%);stop-opacity:1;"/>
<stop offset="1" style="stop-color:rgb(56.078434%,55.29412%,78.039217%);stop-opacity:1;"/>
</linearGradient>
<linearGradient id="linear1" gradientUnits="userSpaceOnUse" x1="86" y1="13.88631" x2="86" y2="161.744507" gradientTransform="matrix(11.906977,0,0,11.906977,0,0)">
<stop offset="0" style="stop-color:rgb(17.647059%,16.862746%,43.137255%);stop-opacity:1;"/>
<stop offset="1" style="stop-color:rgb(30.588236%,29.411766%,60.000002%);stop-opacity:1;"/>
</linearGradient>
<linearGradient id="linear2" gradientUnits="userSpaceOnUse" x1="102.125" y1="13.88631" x2="102.125" y2="161.744507" gradientTransform="matrix(11.906977,0,0,11.906977,0,0)">
<stop offset="0" style="stop-color:rgb(17.647059%,16.862746%,43.137255%);stop-opacity:1;"/>
<stop offset="1" style="stop-color:rgb(30.588236%,29.411766%,60.000002%);stop-opacity:1;"/>
</linearGradient>
<linearGradient id="linear3" gradientUnits="userSpaceOnUse" x1="49.71875" y1="13.88631" x2="49.71875" y2="161.744507" gradientTransform="matrix(11.906977,0,0,11.906977,0,0)">
<stop offset="0" style="stop-color:rgb(17.647059%,16.862746%,43.137255%);stop-opacity:1;"/>
<stop offset="1" style="stop-color:rgb(30.588236%,29.411766%,60.000002%);stop-opacity:1;"/>
</linearGradient>
<linearGradient id="linear4" gradientUnits="userSpaceOnUse" x1="49.71875" y1="13.88631" x2="49.71875" y2="161.744507" gradientTransform="matrix(11.906977,0,0,11.906977,0,0)">
<stop offset="0" style="stop-color:rgb(17.647059%,16.862746%,43.137255%);stop-opacity:1;"/>
<stop offset="1" style="stop-color:rgb(30.588236%,29.411766%,60.000002%);stop-opacity:1;"/>
</linearGradient>
<linearGradient id="linear5" gradientUnits="userSpaceOnUse" x1="49.71875" y1="13.88631" x2="49.71875" y2="161.744507" gradientTransform="matrix(11.906977,0,0,11.906977,0,0)">
<stop offset="0" style="stop-color:rgb(17.647059%,16.862746%,43.137255%);stop-opacity:1;"/>
<stop offset="1" style="stop-color:rgb(30.588236%,29.411766%,60.000002%);stop-opacity:1;"/>
</linearGradient>
<linearGradient id="linear6" gradientUnits="userSpaceOnUse" x1="49.71875" y1="13.88631" x2="49.71875" y2="161.744507" gradientTransform="matrix(11.906977,0,0,11.906977,0,0)">
<stop offset="0" style="stop-color:rgb(17.647059%,16.862746%,43.137255%);stop-opacity:1;"/>
<stop offset="1" style="stop-color:rgb(30.588236%,29.411766%,60.000002%);stop-opacity:1;"/>
</linearGradient>
</defs>
<g id="surface24936772">
<path style=" stroke:none;fill-rule:nonzero;fill:url(#linear0);" d="M 992 864 L 992 992 C 992 1009.664062 1006.335938 1024 1024 1024 L 1073.023438 1024 C 1082.527344 1024 1185.023438 907.585938 1185.023438 907.585938 C 1198.71875 891.136719 1224.351562 892.511719 1236.222656 910.304688 C 1236.222656 910.304688 1344 1023.96875 1329.121094 1023.96875 L 1408 1023.96875 C 1425.664062 1023.96875 1440 1009.632812 1440 991.96875 L 1440 863.96875 C 1440 846.304688 1425.664062 831.96875 1408 831.96875 L 1024 831.96875 C 1006.335938 832 992 846.335938 992 864 Z M 992 864 "/>
<path style=" stroke:none;fill-rule:nonzero;fill:url(#linear1);" d="M 1696 192 L 352 192 C 299.070312 192 256 235.070312 256 288 L 256 1504 C 256 1556.929688 299.070312 1600 352 1600 L 896 1600 L 896 1536 L 352 1536 C 334.335938 1536 320 1521.664062 320 1504 L 320 1466.113281 C 330.046875 1469.695312 340.703125 1472 352 1472 L 896 1472 L 896 1408 L 352 1408 C 334.335938 1408 320 1393.664062 320 1376 L 320 512 L 1728 512 L 1728 1376 C 1728 1393.664062 1713.664062 1408 1696 1408 L 1536 1408 L 1536 1472 L 1696 1472 C 1707.296875 1472 1717.953125 1469.695312 1728 1466.113281 L 1728 1504 C 1728 1521.664062 1713.664062 1536 1696 1536 L 1536 1536 L 1536 1600 L 1696 1600 C 1748.929688 1600 1792 1556.929688 1792 1504 L 1792 288 C 1792 235.070312 1748.929688 192 1696 192 Z M 908.222656 256 L 1004.222656 448 L 851.777344 448 L 755.777344 256 Z M 320 288 C 320 270.335938 334.335938 256 352 256 L 684.222656 256 L 780.222656 448 L 320 448 Z M 1075.777344 448 L 979.777344 256 L 1696 256 C 1713.664062 256 1728 270.335938 1728 288 L 1728 448 Z M 1075.777344 448 "/>
<path style=" stroke:none;fill-rule:nonzero;fill:url(#linear2);" d="M 1537.503906 1256.574219 L 1467.808594 1152 L 1504 1152 C 1539.296875 1152 1568 1123.296875 1568 1088 L 1568 768 C 1568 732.703125 1539.296875 704 1504 704 L 928 704 C 892.703125 704 864 732.703125 864 768 L 864 1088 C 864 1123.296875 892.703125 1152 928 1152 L 964.191406 1152 L 894.496094 1256.574219 C 871.9375 1290.433594 873.183594 1334.976562 897.601562 1367.425781 L 962.785156 1454.367188 C 961.152344 1460 960 1465.824219 960 1472 L 960 1536 C 960 1571.296875 988.703125 1600 1024 1600 L 1024 1760 C 1024 1812.929688 1067.070312 1856 1120 1856 L 1312 1856 C 1364.929688 1856 1408 1812.929688 1408 1760 L 1408 1600 C 1443.296875 1600 1472 1571.296875 1472 1536 L 1472 1472 C 1472 1465.824219 1470.847656 1460 1469.214844 1454.367188 L 1534.367188 1367.488281 C 1558.816406 1334.976562 1560.0625 1290.398438 1537.503906 1256.574219 Z M 928 1088 L 928 768 L 1504 768 L 1504 1088 L 1425.121094 1088 L 1295.9375 894.207031 C 1278.046875 867.425781 1248.191406 851.425781 1216 851.425781 C 1183.808594 851.425781 1153.953125 867.425781 1136.0625 894.207031 L 1006.878906 1088 Z M 1248 1248 C 1248 1265.664062 1233.664062 1280 1216 1280 C 1198.335938 1280 1184 1265.664062 1184 1248 C 1184 1230.335938 1198.335938 1216 1216 1216 C 1233.664062 1216 1248 1230.335938 1248 1248 Z M 1344 1760 C 1344 1777.664062 1329.664062 1792 1312 1792 L 1120 1792 C 1102.335938 1792 1088 1777.664062 1088 1760 L 1088 1600 L 1344 1600 Z M 1024 1536 L 1024 1472 L 1408 1472 L 1408.0625 1536 Z M 1483.230469 1329.023438 L 1422.625 1409.855469 C 1417.921875 1408.734375 1413.054688 1408 1408 1408 L 1024 1408 C 1018.945312 1408 1014.078125 1408.734375 1009.375 1409.855469 L 948.734375 1328.992188 C 940.609375 1318.207031 940.191406 1303.359375 947.742188 1292.097656 L 1184 937.695312 L 1184 1157.921875 C 1146.816406 1171.167969 1120 1206.367188 1120 1248.03125 C 1120 1300.960938 1163.070312 1344.03125 1216 1344.03125 C 1268.929688 1344.03125 1312 1300.960938 1312 1248.03125 C 1312 1206.367188 1285.183594 1171.167969 1248 1157.921875 L 1248 937.695312 L 1484.257812 1292.0625 C 1491.777344 1303.328125 1491.359375 1318.175781 1483.230469 1329.023438 Z M 1483.230469 1329.023438 "/>
<path style=" stroke:none;fill-rule:nonzero;fill:url(#linear3);" d="M 448 704 L 736 704 L 736 768 L 448 768 Z M 448 704 "/>
<path style=" stroke:none;fill-rule:nonzero;fill:url(#linear4);" d="M 448 832 L 736 832 L 736 896 L 448 896 Z M 448 832 "/>
<path style=" stroke:none;fill-rule:nonzero;fill:url(#linear5);" d="M 448 960 L 736 960 L 736 1024 L 448 1024 Z M 448 960 "/>
<path style=" stroke:none;fill-rule:nonzero;fill:url(#linear6);" d="M 448 1088 L 736 1088 L 736 1152 L 448 1152 Z M 448 1088 "/>
</g>
</svg>
