<?xml version="1.0" encoding="UTF-8"?>
<svg xmlns="http://www.w3.org/2000/svg" xmlns:xlink="http://www.w3.org/1999/xlink" viewBox="0 0 512 512" width="512px" height="512px">
<defs>
<linearGradient id="linear0" gradientUnits="userSpaceOnUse" x1="56.4375" y1="124.025436" x2="56.4375" y2="136.852875" gradientTransform="matrix(2.976744,0,0,2.976744,0,0)">
<stop offset="0" style="stop-color:rgb(32.156864%,30.980393%,72.941178%);stop-opacity:1;"/>
<stop offset="1" style="stop-color:rgb(56.078434%,55.29412%,78.039217%);stop-opacity:1;"/>
</linearGradient>
<linearGradient id="linear1" gradientUnits="userSpaceOnUse" x1="86" y1="18.8125" x2="86" y2="151.771194" gradientTransform="matrix(2.976744,0,0,2.976744,0,0)">
<stop offset="0" style="stop-color:rgb(17.647059%,16.862746%,43.137255%);stop-opacity:1;"/>
<stop offset="1" style="stop-color:rgb(30.588236%,29.411766%,60.000002%);stop-opacity:1;"/>
</linearGradient>
<linearGradient id="linear2" gradientUnits="userSpaceOnUse" x1="86" y1="18.8125" x2="86" y2="151.771194" gradientTransform="matrix(8,0,0,8,0,0)">
<stop offset="0" style="stop-color:rgb(17.647059%,16.862746%,43.137255%);stop-opacity:1;"/>
<stop offset="1" style="stop-color:rgb(30.588236%,29.411766%,60.000002%);stop-opacity:1;"/>
</linearGradient>
<linearGradient id="linear3" gradientUnits="userSpaceOnUse" x1="49.71875" y1="18.8125" x2="49.71875" y2="151.771194" gradientTransform="matrix(8,0,0,8,0,0)">
<stop offset="0" style="stop-color:rgb(17.647059%,16.862746%,43.137255%);stop-opacity:1;"/>
<stop offset="1" style="stop-color:rgb(30.588236%,29.411766%,60.000002%);stop-opacity:1;"/>
</linearGradient>
<linearGradient id="linear4" gradientUnits="userSpaceOnUse" x1="86" y1="18.8125" x2="86" y2="151.771194" gradientTransform="matrix(8,0,0,8,0,0)">
<stop offset="0" style="stop-color:rgb(17.647059%,16.862746%,43.137255%);stop-opacity:1;"/>
<stop offset="1" style="stop-color:rgb(30.588236%,29.411766%,60.000002%);stop-opacity:1;"/>
</linearGradient>
<linearGradient id="linear5" gradientUnits="userSpaceOnUse" x1="68.53125" y1="18.8125" x2="68.53125" y2="151.771194" gradientTransform="matrix(8,0,0,8,0,0)">
<stop offset="0" style="stop-color:rgb(17.647059%,16.862746%,43.137255%);stop-opacity:1;"/>
<stop offset="1" style="stop-color:rgb(30.588236%,29.411766%,60.000002%);stop-opacity:1;"/>
</linearGradient>
</defs>
<g id="surface24929784">
<path style=" stroke:none;fill-rule:nonzero;fill:url(#linear0);" d="M 216 416 L 120 416 C 115.585938 416 112 412.414062 112 408 L 112 376 C 112 371.585938 115.585938 368 120 368 L 216 368 C 220.414062 368 224 371.585938 224 376 L 224 408 C 224 412.414062 220.414062 416 216 416 Z M 216 416 "/>
<path style=" stroke:none;fill-rule:nonzero;fill:url(#linear1);" d="M 440 128 L 424 128 L 424 144 L 440 144 C 444.414062 144 448 147.59375 448 152 L 448 176 L 424 176 L 424 192 L 448 192 L 448 440 C 448 444.40625 444.414062 448 440 448 L 72 448 C 67.585938 448 64 444.40625 64 440 L 64 152 C 64 147.59375 67.585938 144 72 144 L 143.441406 144 C 146.121094 144 148.609375 145.335938 150.097656 147.558594 L 172.601562 181.3125 C 177.054688 188 184.519531 192 192.558594 192 L 296 192 C 296 222.878906 321.128906 248 352 248 C 354.71875 248 357.375 247.734375 360 247.359375 L 360 231.191406 C 357.417969 231.71875 354.734375 232 352 232 C 329.945312 232 312 214.054688 312 192 L 408 192 L 408 110.527344 C 417.289062 107.214844 424 98.414062 424 88 C 424 77.585938 417.289062 68.785156 408 65.472656 L 408 48 L 392 48 L 392 65.472656 C 382.710938 68.785156 376 77.585938 376 88 C 376 98.414062 382.710938 107.214844 392 110.527344 L 392 128 L 72 128 C 58.769531 128 48 138.769531 48 152 L 48 440 C 48 453.230469 58.769531 464 72 464 L 440 464 C 453.230469 464 464 453.230469 464 440 L 464 152 C 464 138.769531 453.230469 128 440 128 Z M 400 80 C 404.414062 80 408 83.59375 408 88 C 408 92.40625 404.414062 96 400 96 C 395.585938 96 392 92.40625 392 88 C 392 83.59375 395.585938 80 400 80 Z M 392 176 L 312 176 L 312 160 L 296 160 L 296 176 L 272.558594 176 C 269.878906 176 267.390625 174.664062 265.902344 172.441406 L 246.945312 144 L 392 144 Z M 223.441406 144 C 226.121094 144 228.609375 145.335938 230.097656 147.558594 L 249.054688 176 L 192.558594 176 C 189.878906 176 187.390625 174.664062 185.902344 172.441406 L 166.945312 144 Z M 223.441406 144 "/>
<path style=" stroke:none;fill-rule:nonzero;fill:url(#linear2);" d="M 112 264 L 400 264 L 400 280 L 112 280 Z M 112 264 "/>
<path style=" stroke:none;fill-rule:nonzero;fill:url(#linear3);" d="M 112 216 L 184 216 L 184 232 L 112 232 Z M 112 216 "/>
<path style=" stroke:none;fill-rule:nonzero;fill:url(#linear4);" d="M 112 296 L 400 296 L 400 312 L 112 312 Z M 112 296 "/>
<path style=" stroke:none;fill-rule:nonzero;fill:url(#linear5);" d="M 112 328 L 296 328 L 296 344 L 112 344 Z M 112 328 "/>
</g>
</svg>
